<svg width="104" height="32" viewBox="0 0 104 32" fill="none" xmlns="http://www.w3.org/2000/svg">
<path d="M26.5151 0H5.48493C2.45569 0 0 2.45604 0 5.48571V26.5143C0 29.544 2.45569 32 5.48493 32H26.5151C29.5443 32 32 29.544 32 26.5143V5.48571C32 2.45604 29.5443 0 26.5151 0Z" fill="url(#paint0_linear_4175_151263)"/>
<path d="M54.2439 10.5365H57.3066V18.962H59.3278V10.5365H62.439V22.5136C62.439 24.7029 61.5829 25.5609 59.6367 25.5609H55.9076L56.1195 22.8453H59.3278V20.8948C58.5687 21.4167 57.5449 21.8457 56.3843 21.8457C54.9368 21.8457 54.2439 21.0363 54.2439 19.5149V10.5409V10.5365Z" fill="white"/>
<path d="M40 10.6333H42.9479L43.0443 11.5305C43.824 11.0115 44.8358 10.5365 45.874 10.5365C47.0041 10.5365 47.5735 10.9148 47.832 11.6273C48.6336 10.9412 49.6717 10.5365 50.7799 10.5365C52.2166 10.5365 52.878 11.271 52.878 12.9996V21.8536H49.8118V13.5186H47.9721V21.8536H44.9059V13.5186H43.0662V21.8536H40V10.6333Z" fill="white"/>
<path d="M94.0488 21.8536V6.43896H100.808C102.301 6.43896 102.86 7.29362 102.86 9.25845V14.404C102.86 15.8974 102.509 16.7257 101.648 17.012L103.024 21.8492H99.7858L98.5518 17.294H97.2918V21.8492H94.0532L94.0488 21.8536ZM99.6905 9.45229H97.2918V14.3379H99.6905V9.45229Z" fill="white"/>
<path d="M83.3171 6.43896H89.9545C91.9599 6.43896 92.4879 7.67249 92.4879 9.66375V18.8183C92.4879 20.3381 91.8445 21.8536 89.7903 21.8536H83.3171V6.43896ZM89.1914 9.45229H86.6358V18.8447H89.1914V9.45229Z" fill="white"/>
<path d="M74.1462 6.43896H77.4633V18.8403H81.9511V21.8536H74.1462V6.43896Z" fill="white"/>
<path d="M70.1961 21.8536H63.8049V6.43896H70.314C72.0515 6.43896 72.5928 7.48305 72.5928 9.25845V12.2718C72.5928 13.1264 72.3091 13.7168 71.7939 13.9546C72.523 14.2146 72.7805 14.8534 72.7805 15.8534V19.1971C72.7805 20.5496 72.0035 21.8536 70.1961 21.8536ZM69.3274 9.31131H67.0486V12.7255H69.3274V9.31131ZM69.5151 15.523H67.0486V18.9857H69.5151V15.523Z" fill="white"/>
<path d="M19.5277 20.0338V22.3658C19.5277 22.6551 19.2899 22.8874 18.9938 22.8874H13.0621C12.7659 22.8874 12.5281 22.6551 12.5281 22.3658V20.0338C12.5281 19.7445 12.2903 19.5122 11.9942 19.5122H8.99243V25.8199C8.99243 26.1092 9.23024 26.3415 9.52637 26.3415H22.5339C22.8301 26.3415 23.0679 26.1092 23.0679 25.8199V19.5122H20.0661C19.77 19.5122 19.5322 19.7445 19.5322 20.0338" fill="white"/>
<path d="M26.8527 18.6471L16.3441 5.85256C16.1327 5.59391 15.7278 5.59391 15.5164 5.85256L5.00787 18.6471C4.72446 18.9949 4.97188 19.5122 5.42173 19.5122H8.8721L15.5164 11.4404C15.7323 11.1817 16.1327 11.1817 16.3441 11.4404L22.9884 19.5122H26.4433C26.8932 19.5122 27.1406 18.9949 26.8572 18.6471" fill="white"/>
<defs>
<linearGradient id="paint0_linear_4175_151263" x1="16.7952" y1="-0.182072" x2="16.7952" y2="32.0011" gradientUnits="userSpaceOnUse">
<stop stop-color="#E11837"/>
<stop offset="0.34" stop-color="#DC1734"/>
<stop offset="0.73" stop-color="#CD152D"/>
<stop offset="1" stop-color="#C01327"/>
</linearGradient>
</defs>
</svg>
