<svg width="33" height="25" viewBox="0 0 33 25" fill="none" xmlns="http://www.w3.org/2000/svg">
<path fill-rule="evenodd" clip-rule="evenodd" d="M0 0H32.3113V13.8508L20.998 25.0017H0V0ZM1.50987 1.4882V23.5135H20.3726L30.8014 13.2344V1.4882H1.50987Z" fill="white"/>
<path d="M30.4805 14.4414L21.585 23.209V14.4414H30.4805Z" stroke="white" stroke-width="1.5"/>
<path fill-rule="evenodd" clip-rule="evenodd" d="M5.98291 5.66016H6.914V6.25543H6.58686V6.53654H5.98291V5.66016ZM9.43046 6.25543H8.17223V5.66016H9.43046V6.25543ZM11.9469 6.25543H10.6887V5.66016H11.9469V6.25543ZM14.4634 6.25543H13.2051V5.66016H14.4634V6.25543ZM16.9798 6.25543H15.7216V5.66016H16.9798V6.25543ZM19.4963 6.25543H18.2381V5.66016H19.4963V6.25543ZM22.0127 6.25543H20.7545V5.66016H22.0127V6.25543ZM24.5292 6.25543H23.271V5.66016H24.5292V6.25543ZM26.1146 6.25543H25.7874V5.66016H26.7185V6.47866H26.1146V6.25543ZM26.1146 8.56214V7.5204H26.7185V8.56214H26.1146ZM6.58686 7.69402V8.85151H5.98291V7.69402H6.58686ZM26.1146 10.6456V9.60387H26.7185V10.6456H26.1146ZM6.58686 10.009V11.1665H5.98291V10.009H6.58686ZM26.1146 12.7291V11.6873H26.7185V12.7291H26.1146ZM6.58686 12.324V13.4814H5.98291V12.324H6.58686ZM26.1146 14.2917V13.7708H26.7185V14.2917C26.7185 14.4561 26.5833 14.5893 26.4165 14.5893C26.2498 14.5893 26.1146 14.4561 26.1146 14.2917ZM6.58686 14.6389V15.7964H5.98291V14.6389H6.58686ZM6.58686 16.9539V18.1114H5.98291V16.9539H6.58686ZM6.58686 19.55V19.2689H5.98291V20.1453H6.87626V19.55H6.58686ZM8.05901 19.55H9.24175V20.1453H8.05901V19.55ZM10.4245 19.55H11.6072V20.1453H10.4245V19.55ZM12.79 19.55H13.9727V20.1453H12.79V19.55ZM15.1555 19.55H16.3382V20.1453H15.1555V19.55ZM17.521 19.55H18.7037V20.1453H17.521V19.55ZM19.8865 19.55H20.7798V20.1453H19.8865V19.55Z" fill="white"/>
</svg>
