<svg width="20" height="25" viewBox="0 0 20 25" fill="none" xmlns="http://www.w3.org/2000/svg">
<path d="M14.6938 5.2227C14.6938 3.35162 13.6001 1.75054 12.0485 1.08138L11.1427 2.9844V0.37305C11.1427 0.274111 11.1053 0.179224 11.0387 0.109264C10.9721 0.0393034 10.8818 0 10.7876 0H8.65689C8.56271 0 8.47239 0.0393034 8.40579 0.109264C8.33919 0.179224 8.30178 0.274111 8.30178 0.37305V2.9844L7.39601 1.08138C5.84438 1.75054 4.75063 3.35162 4.75063 5.2227V6.71489H14.6938V5.2227ZM15.049 6.71489H4.39552C4.30134 6.71489 4.21101 6.7542 4.14441 6.82416C4.07782 6.89412 4.0404 6.989 4.0404 7.08794V7.83404C4.0404 7.93298 4.07782 8.02787 4.14441 8.09783C4.21101 8.16779 4.30134 8.20709 4.39552 8.20709H15.049C15.1431 8.20709 15.2335 8.16779 15.3001 8.09783C15.3667 8.02787 15.4041 7.93298 15.4041 7.83404V7.08794C15.4041 6.989 15.3667 6.89412 15.3001 6.82416C15.2335 6.7542 15.1431 6.71489 15.049 6.71489Z" fill="white"/>
<path d="M14.1408 8.83849C14.1408 11.6278 12.1622 13.889 9.72156 13.889C7.2809 13.889 5.30236 11.6278 5.30236 8.83849C7.36466 8.83847 7.2809 8.83867 9.72156 8.83867C12.1622 8.83867 9.72156 8.83841 14.1408 8.83849Z" fill="white"/>
<path d="M0 15.3123V25H4.16668V18.0555L4.86112 25H14.5834L15.2778 18.0555V25H19.4445V15.3123L18.0556 13.9234L13.1945 13.1944L9.72225 16.6666L6.25002 13.1944L1.38889 13.9234L0 15.3123Z" fill="white"/>
</svg>
