<svg width="31" height="25" viewBox="0 0 31 25" fill="none" xmlns="http://www.w3.org/2000/svg">
<path d="M29.2682 12.8049V18.2927H30.4877V20.7317H27.439L24.3902 17.6829H21.9512L18.9024 20.7317H10.3658L7.31706 17.6829H4.87804L1.82926 20.7317H0V12.8049H29.2682Z" fill="white"/>
<path d="M0 0H18.9024L20.1219 1.21951V11.5853H0V0Z" fill="white"/>
<path d="M20.1222 5.79264H24.6953L29.2685 11.5853L29.2682 12.8049L27.7441 12.8048V11.8902L24.3905 7.31703H20.1222V5.79264Z" fill="white"/>
<path fill-rule="evenodd" clip-rule="evenodd" d="M27.439 20.7317C27.439 23.089 25.5286 25 23.1713 25C20.814 25 18.9024 23.089 18.9024 20.7317C18.9024 18.3744 20.814 16.4634 23.1713 16.4634C25.5286 16.4634 27.439 18.3744 27.439 20.7317ZM23.1713 23.2927C24.5856 23.2927 25.7322 22.1461 25.7322 20.7317C25.7322 19.3173 24.5856 18.1707 23.1713 18.1707C21.7569 18.1707 20.6103 19.3173 20.6103 20.7317C20.6103 22.1461 21.7569 23.2927 23.1713 23.2927Z" fill="white"/>
<path fill-rule="evenodd" clip-rule="evenodd" d="M10.3649 20.7317C10.3649 23.089 8.45396 25 6.09666 25C3.73935 25 1.82837 23.089 1.82837 20.7317C1.82837 18.3744 3.73935 16.4634 6.09666 16.4634C8.45396 16.4634 10.3649 18.3744 10.3649 20.7317ZM6.09666 23.2927C7.51104 23.2927 8.65763 22.1461 8.65763 20.7317C8.65763 19.3173 7.51104 18.1707 6.09666 18.1707C4.68227 18.1707 3.53569 19.3173 3.53569 20.7317C3.53569 22.1461 4.68227 23.2927 6.09666 23.2927Z" fill="white"/>
</svg>
