<svg width="24" height="25" viewBox="0 0 24 25" fill="none" xmlns="http://www.w3.org/2000/svg">
<path d="M23.2113 8.13636C23.3657 8.56124 23.2355 9.03497 22.9027 9.33776L20.8142 11.262C20.8672 11.6673 20.8962 12.0824 20.8962 12.5024C20.8962 12.9224 20.8672 13.3376 20.8142 13.7429L22.9027 15.6671C23.2355 15.9699 23.3657 16.4436 23.2113 16.8685C22.9991 17.4497 22.7435 18.0064 22.4493 18.5437L22.2226 18.9392C21.9042 19.4765 21.5473 19.9844 21.1566 20.463C20.8721 20.8146 20.3994 20.9318 19.9749 20.7951L17.2884 19.9307C16.6421 20.4337 15.9282 20.8537 15.1661 21.1711L14.5632 23.9598C14.4668 24.4042 14.1291 24.7558 13.6854 24.8291C13.0198 24.9414 12.3349 25 11.6355 25C10.9361 25 10.2512 24.9414 9.58563 24.8291C9.14189 24.7558 8.80427 24.4042 8.7078 23.9598L8.10489 21.1711C7.34282 20.8537 6.62898 20.4337 5.98266 19.9307L3.30093 20.8C2.87648 20.9367 2.4038 20.8146 2.11923 20.4679C1.72855 19.9893 1.37163 19.4813 1.05329 18.9441L0.826598 18.5485C0.532379 18.0113 0.276747 17.4546 0.0645235 16.8734C-0.0898208 16.4485 0.0404072 15.9748 0.373212 15.672L2.46168 13.7478C2.40863 13.3376 2.37969 12.9224 2.37969 12.5024C2.37969 12.0824 2.40863 11.6673 2.46168 11.262L0.373212 9.33776C0.0404072 9.03497 -0.0898208 8.56124 0.0645235 8.13636C0.276747 7.55519 0.532379 6.99844 0.826598 6.46122L1.05329 6.06564C1.37163 5.52842 1.72855 5.02051 2.11923 4.5419C2.4038 4.19027 2.87648 4.07306 3.30093 4.20981L5.98748 5.07423C6.6338 4.57121 7.34764 4.1512 8.10972 3.83376L8.71263 1.04513C8.80909 0.600703 9.14672 0.249072 9.59046 0.175816C10.2561 0.0586052 10.941 0 11.6403 0C12.3397 0 13.0246 0.0586052 13.6902 0.170932C14.134 0.244188 14.4716 0.595819 14.5681 1.04024L15.171 3.82887C15.933 4.14632 16.6469 4.56632 17.2932 5.06935L19.9798 4.20492C20.4042 4.06818 20.8769 4.19027 21.1615 4.53702C21.5521 5.01563 21.9091 5.52354 22.2274 6.06075L22.4541 6.45634C22.7483 6.99355 23.0039 7.5503 23.2162 8.13147L23.2113 8.13636ZM11.6403 16.4095C12.6637 16.4095 13.6452 15.9978 14.3688 15.2651C15.0924 14.5324 15.499 13.5386 15.499 12.5024C15.499 11.4662 15.0924 10.4725 14.3688 9.73977C13.6452 9.00706 12.6637 8.59543 11.6403 8.59543C10.617 8.59543 9.63553 9.00706 8.9119 9.73977C8.18827 10.4725 7.78174 11.4662 7.78174 12.5024C7.78174 13.5386 8.18827 14.5324 8.9119 15.2651C9.63553 15.9978 10.617 16.4095 11.6403 16.4095Z" fill="white"/>
</svg>
