<svg width="30" height="25" viewBox="0 0 30 25" fill="none" xmlns="http://www.w3.org/2000/svg">
<path d="M28.625 0.75V24.25H0.75V0.75H28.625Z" stroke="white" stroke-width="1.5"/>
<path d="M0.873047 5.23926H28.8164V6.98572H0.873047V5.23926Z" fill="white"/>
<path d="M21.8754 9.75635H25.0004V12.8051H21.8754V9.75635Z" fill="white"/>
<path d="M21.8754 14.0244H25.0004V17.0732H21.8754V14.0244Z" fill="white"/>
<path d="M17.5007 14.0244H20.6257V17.0732H17.5007V14.0244Z" fill="white"/>
<path d="M17.5007 9.75635H20.6257V12.8051H17.5007V9.75635Z" fill="white"/>
<path d="M13.1252 14.0244H16.2502V17.0732H13.1252V14.0244Z" fill="white"/>
<path d="M8.75053 14.0244H11.8755V17.0732H8.75053V14.0244Z" fill="white"/>
<path d="M13.1252 9.75635H16.2502V12.8051H13.1252V9.75635Z" fill="white"/>
<path d="M4.375 14.0244H7.5V17.0732H4.375V14.0244Z" fill="white"/>
<path d="M13.1252 18.2927H16.2502V21.3415H13.1252V18.2927Z" fill="white"/>
<path d="M17.5007 18.2927H20.6257V21.3415H17.5007V18.2927Z" fill="white"/>
<path d="M8.75053 18.2927H11.8755V21.3415H8.75053V18.2927Z" fill="white"/>
<path d="M4.375 18.2927H7.5V21.3415H4.375V18.2927Z" fill="white"/>
</svg>
