<svg width="33" height="25" viewBox="0 0 33 25" fill="none" xmlns="http://www.w3.org/2000/svg">
<path d="M0 1.72416C0 0.771932 0.771932 0 1.72416 0H30.776C31.7282 0 32.5001 0.771932 32.5001 1.72416V5.62502H0V1.72416Z" fill="white"/>
<path d="M0 9.375H32.5001V16.875H0V9.375Z" fill="white"/>
<path d="M0 19.375H32.5001V23.2758C32.5001 24.2281 31.7282 25 30.776 25H1.72416C0.771932 25 0 24.2281 0 23.2758V19.375Z" fill="white"/>
<path d="M0 16.875L4.37502 16.875V19.3751L0 19.375V16.875Z" fill="white"/>
<path d="M9.99971 16.875H12.4997V19.3751H9.99971V16.875Z" fill="white"/>
<path d="M22.5004 16.875L32.5001 16.875V19.375L22.5004 19.3751V16.875Z" fill="white"/>
</svg>
