<svg width="27" height="25" viewBox="0 0 27 25" fill="none" xmlns="http://www.w3.org/2000/svg">
<path d="M16.9153 24.3701V17.2865C16.9153 16.9346 16.6279 16.653 16.2771 16.653H12.7654C12.228 16.653 11.9295 16.0343 12.2691 15.6194L18.9939 7.42439C19.1843 7.19099 19.1843 6.85756 18.9939 6.62416L13.7544 0.233402C13.5006 -0.0778005 13.0192 -0.0778005 12.7654 0.233402L0.1442 15.6157C-0.195402 16.0306 0.103149 16.6493 0.64054 16.6493H4.15224C4.50677 16.6493 4.79039 16.9346 4.79039 17.2828V24.3664C4.79039 24.7183 5.07775 24.9999 5.42854 24.9999H16.2771C16.6317 24.9999 16.9153 24.7146 16.9153 24.3664V24.3701Z" fill="white"/>
<path d="M21.1693 25H19.113C18.7883 25 18.4972 24.7814 18.4301 24.4665C18.3405 24.033 18.6726 23.6515 19.0943 23.6515H20.7774C20.8856 23.6515 20.9715 23.5662 20.9715 23.4588V17.1199C20.9715 16.4827 21.4902 15.9677 22.1321 15.9677H24.8787C25.043 15.9677 25.1325 15.7788 25.028 15.6528L19.9303 9.47694C19.6914 9.18797 19.7362 8.76562 20.0236 8.52852C20.3147 8.29141 20.7401 8.33587 20.9789 8.62114L26.5954 15.4268C26.879 15.7714 26.9387 16.2345 26.7522 16.642C26.5656 17.0495 26.114 17.3126 25.6475 17.3126H22.5202C22.412 17.3126 22.3261 17.3978 22.3261 17.5052V23.8441C22.3261 24.4813 21.8074 24.9963 21.1655 24.9963L21.1693 25Z" fill="white"/>
</svg>
