<svg width="20" height="25" viewBox="0 0 20 25" fill="none" xmlns="http://www.w3.org/2000/svg">
<path d="M14.8788 5.22264C14.8788 3.35158 13.7714 1.75052 12.2004 1.08137L11.2833 2.98436V0.373046C11.2833 0.274108 11.2454 0.179222 11.178 0.109263C11.1105 0.039303 11.0191 0 10.9237 0H8.76643C8.67107 0 8.57962 0.039303 8.51219 0.109263C8.44476 0.179222 8.40688 0.274108 8.40688 0.373046V2.98436L7.4898 1.08137C5.9188 1.75052 4.81138 3.35158 4.81138 5.22264V6.71482H14.8788V5.22264ZM15.2383 6.71482H4.45183C4.35648 6.71482 4.26502 6.75412 4.19759 6.82408C4.13017 6.89404 4.09229 6.98893 4.09229 7.08787V7.83396C4.09229 7.9329 4.13017 8.02778 4.19759 8.09774C4.26502 8.1677 4.35648 8.207 4.45183 8.207H15.2383C15.3337 8.207 15.4251 8.1677 15.4926 8.09774C15.56 8.02778 15.5979 7.9329 15.5979 7.83396V7.08787C15.5979 6.98893 15.56 6.89404 15.4926 6.82408C15.4251 6.75412 15.3337 6.71482 15.2383 6.71482Z" fill="white"/>
<path d="M14.3199 8.83887C14.3199 11.6282 12.3166 13.8893 9.84549 13.8893C7.37435 13.8893 5.37109 11.6282 5.37109 8.83887C7.45914 8.83885 7.37435 8.83905 9.84549 8.83905C12.3166 8.83905 9.84549 8.83879 14.3199 8.83887Z" fill="white"/>
<path d="M0 15.3127V25.0003H4.21871V18.0559L4.92183 25.0003L10.7577 24.9963V17.0862H13.289C13.289 17.0862 13.6054 16.4534 14.5546 16.4534C15.5038 16.4534 15.8202 17.0862 15.8202 17.0862H18.3514V24.9963L19.6873 25.0003V15.3127L18.2811 13.9238L13.3593 13.1948L9.84367 16.667L6.32807 13.1948L1.40624 13.9238L0 15.3127Z" fill="white"/>
<path d="M14.5561 17.187C14.1578 17.187 13.8753 17.4764 13.7355 17.837H12.9741H12.6577H11.7085H11.3921V18.162V24.6706V24.9956H11.7085H17.4038H17.7202V24.6706V18.162V17.837H17.4038H16.4545H16.1381H15.3768C15.237 17.4764 14.9545 17.187 14.5561 17.187ZM14.5561 17.837C14.7316 17.837 14.8725 17.9818 14.8725 18.162V18.487H15.1889H15.8217V19.137H13.2905V18.487H13.9233H14.2397V18.162C14.2397 17.9818 14.3807 17.837 14.5561 17.837Z" fill="white"/>
</svg>
