<svg width="20" height="20" viewBox="0 0 20 20" fill="none" xmlns="http://www.w3.org/2000/svg">
<mask id="mask0_137_4411" style="mask-type:alpha" maskUnits="userSpaceOnUse" x="0" y="0" width="20" height="20">
<rect width="20" height="20" fill="#D9D9D9"/>
</mask>
<g mask="url(#mask0_137_4411)">
<path d="M3.3125 16.4791C2.61805 16.4791 2.03125 16.2361 1.55208 15.75C1.07292 15.2639 0.833332 14.6736 0.833332 13.9791V8.97915C0.833332 8.52081 0.996527 8.12845 1.32292 7.80206C1.6493 7.47567 2.04167 7.31248 2.5 7.31248H6.66667V3.97915C6.66667 3.74304 6.74653 3.54512 6.90625 3.3854C7.06597 3.22567 7.26389 3.14581 7.5 3.14581H10.8333C11.5278 3.14581 12.1146 3.38887 12.5937 3.87498C13.0729 4.36109 13.3125 4.95137 13.3125 5.64581V8.97915H14.1458V7.99998C14.1458 7.77776 14.191 7.56248 14.2812 7.35415C14.3715 7.14581 14.4931 6.96526 14.6458 6.81248L15.4583 6.02081C15.6528 5.82637 15.8854 5.74998 16.1562 5.79165C16.4271 5.83331 16.6319 5.97915 16.7708 6.22915L19.3333 11.0833C19.4861 11.3611 19.4826 11.6354 19.3229 11.9062C19.1632 12.1771 18.9236 12.3125 18.6042 12.3125H15.8125C15.3542 12.3125 14.9618 12.1493 14.6354 11.8229C14.309 11.4965 14.1458 11.1041 14.1458 10.6458H13.3125V12.1041C13.5903 12.3403 13.8021 12.6215 13.9479 12.9479C14.0937 13.2743 14.1667 13.618 14.1667 13.9791C14.1667 14.6736 13.9236 15.2639 13.4375 15.75C12.9514 16.2361 12.3611 16.4791 11.6667 16.4791C11.1389 16.4791 10.6597 16.3264 10.2292 16.0208C9.79861 15.7153 9.48611 15.3125 9.29167 14.8125H5.6875C5.49305 15.3125 5.18055 15.7153 4.75 16.0208C4.31944 16.3264 3.84028 16.4791 3.3125 16.4791ZM3.3125 14.8125C3.54861 14.8125 3.75 14.7326 3.91667 14.5729C4.08333 14.4132 4.16667 14.2153 4.16667 13.9791C4.16667 13.743 4.0868 13.5451 3.92708 13.3854C3.76736 13.2257 3.56944 13.1458 3.33333 13.1458C3.09722 13.1458 2.8993 13.2257 2.73958 13.3854C2.57986 13.5451 2.5 13.743 2.5 13.9791C2.5 14.2153 2.57639 14.4132 2.72917 14.5729C2.88194 14.7326 3.07639 14.8125 3.3125 14.8125ZM11.6667 14.8125C11.9028 14.8125 12.1007 14.7326 12.2604 14.5729C12.4201 14.4132 12.5 14.2153 12.5 13.9791C12.5 13.743 12.4201 13.5451 12.2604 13.3854C12.1007 13.2257 11.9028 13.1458 11.6667 13.1458C11.4306 13.1458 11.2326 13.2257 11.0729 13.3854C10.9132 13.5451 10.8333 13.743 10.8333 13.9791C10.8333 14.2153 10.9132 14.4132 11.0729 14.5729C11.2326 14.7326 11.4306 14.8125 11.6667 14.8125ZM6.66667 13.1458V8.97915H2.5V11.625C2.63889 11.5694 2.7743 11.5312 2.90625 11.5104C3.03819 11.4896 3.18055 11.4791 3.33333 11.4791C3.86111 11.4791 4.34028 11.6319 4.77083 11.9375C5.20139 12.243 5.50694 12.6458 5.6875 13.1458H6.66667ZM8.33333 13.1458H9.29167C9.47222 12.6458 9.78125 12.243 10.2187 11.9375C10.6562 11.6319 11.1389 11.4791 11.6667 11.4791V10.6458H8.33333V13.1458ZM17.2292 10.6458L15.8333 7.99998V10.6458H17.2292ZM8.33333 8.97915H11.6667V5.64581C11.6667 5.4097 11.5868 5.21179 11.4271 5.05206C11.2674 4.89234 11.0694 4.81248 10.8333 4.81248H8.33333V8.97915ZM6.66667 13.1458V11.4791V11.625V8.97915V13.1458Z" fill="#636769"/>
</g>
</svg>
