<svg width="20" height="20" viewBox="0 0 20 20" fill="none" xmlns="http://www.w3.org/2000/svg">
<mask id="mask0_1844_82326" style="mask-type:alpha" maskUnits="userSpaceOnUse" x="0" y="0" width="20" height="20">
<rect width="20" height="20" fill="#D9D9D9"/>
</mask>
<g mask="url(#mask0_1844_82326)">
<path d="M9.99984 12.4793C9.88873 12.4793 9.78456 12.462 9.68734 12.4272C9.59012 12.3925 9.49984 12.3335 9.4165 12.2502L5.58317 8.41683C5.43039 8.26405 5.354 8.06961 5.354 7.8335C5.354 7.59738 5.43039 7.40294 5.58317 7.25016C5.73595 7.09738 5.93039 7.021 6.1665 7.021C6.40262 7.021 6.59706 7.09738 6.74984 7.25016L9.99984 10.5002L13.2498 7.25016C13.4026 7.09738 13.5971 7.021 13.8332 7.021C14.0693 7.021 14.2637 7.09738 14.4165 7.25016C14.5693 7.40294 14.6457 7.59738 14.6457 7.8335C14.6457 8.06961 14.5693 8.26405 14.4165 8.41683L10.5832 12.2502C10.4998 12.3335 10.4096 12.3925 10.3123 12.4272C10.2151 12.462 10.1109 12.4793 9.99984 12.4793Z" fill="#75787B"/>
</g>
</svg>
