<svg width="20" height="20" viewBox="0 0 20 20" fill="none" xmlns="http://www.w3.org/2000/svg">
<path d="M10 12.5C11.3807 12.5 12.5 11.3807 12.5 10C12.5 8.61929 11.3807 7.5 10 7.5C8.61929 7.5 7.5 8.61929 7.5 10C7.5 11.3807 8.61929 12.5 10 12.5Z" stroke="currentColor" stroke-width="1.5" stroke-linecap="round" stroke-linejoin="round"/>
<path d="M16.1667 12.5C16.0557 12.7513 16.0226 13.0302 16.0716 13.3005C16.1207 13.5708 16.2495 13.8203 16.4417 14.0167L16.4917 14.0667C16.6466 14.2214 16.7695 14.4053 16.8533 14.6076C16.9372 14.8099 16.9804 15.0268 16.9804 15.2458C16.9804 15.4649 16.9372 15.6817 16.8533 15.8841C16.7695 16.0864 16.6466 16.2703 16.4917 16.425C16.337 16.5799 16.1531 16.7028 15.9507 16.7866C15.7484 16.8705 15.5316 16.9137 15.3125 16.9137C15.0934 16.9137 14.8766 16.8705 14.6743 16.7866C14.4719 16.7028 14.288 16.5799 14.1333 16.425L14.0833 16.375C13.887 16.1828 13.6374 16.054 13.3672 16.005C13.0969 15.9559 12.818 15.989 12.5667 16.1C12.3203 16.2056 12.1124 16.3831 11.9687 16.6097C11.825 16.8363 11.7519 17.1016 11.7583 17.3708V17.5C11.7583 17.942 11.5827 18.366 11.2702 18.6785C10.9577 18.991 10.5337 19.1667 10.0917 19.1667C9.64964 19.1667 9.22572 18.991 8.9132 18.6785C8.60068 18.366 8.42501 17.942 8.42501 17.5V17.4292C8.42556 17.1512 8.34295 16.8795 8.18755 16.6502C8.03216 16.4209 7.81091 16.245 7.55001 16.1458C7.29872 16.0349 7.01986 16.0017 6.74958 16.0508C6.47929 16.0998 6.22978 16.2286 6.03334 16.4208L5.98334 16.4708C5.82866 16.6257 5.64476 16.7486 5.44242 16.8325C5.24007 16.9163 5.02324 16.9596 4.80417 16.9596C4.5851 16.9596 4.36827 16.9163 4.16593 16.8325C3.96359 16.7486 3.77969 16.6257 3.62501 16.4708C3.47012 16.3161 3.34721 16.1322 3.26337 15.9299C3.17952 15.7276 3.13629 15.5107 3.13629 15.2917C3.13629 15.0726 3.17952 14.8558 3.26337 14.6534C3.34721 14.4511 3.47012 14.2672 3.62501 14.1125L3.67501 14.0625C3.86723 13.8661 3.99599 13.6166 4.04507 13.3463C4.09415 13.076 4.06094 12.7971 3.95001 12.5458C3.84439 12.2994 3.66688 12.0915 3.44029 11.9478C3.2137 11.8041 2.94842 11.731 2.67917 11.7375H2.50001C2.05798 11.7375 1.63405 11.5618 1.32149 11.2493C1.00893 10.9368 0.833344 10.5128 0.833344 10.0708C0.833344 9.62881 1.00893 9.20488 1.32149 8.89232C1.63405 8.57976 2.05798 8.40417 2.50001 8.40417H2.57084C2.84884 8.40472 3.12054 8.32211 3.34985 8.16672C3.57916 8.01132 3.75507 7.79007 3.85417 7.52917C3.9651 7.27788 3.99831 6.99902 3.94923 6.72874C3.90015 6.45845 3.77139 6.20894 3.57917 6.0125L3.52917 5.9625C3.37428 5.80782 3.25138 5.62392 3.16753 5.42158C3.08368 5.21923 3.04046 5.0024 3.04046 4.78333C3.04046 4.56426 3.08368 4.34743 3.16753 4.14509C3.25138 3.94275 3.37428 3.75885 3.52917 3.60417C3.68385 3.44928 3.86775 3.32637 4.07009 3.24252C4.27244 3.15868 4.48926 3.11545 4.70834 3.11545C4.92741 3.11545 5.14424 3.15868 5.34658 3.24252C5.54892 3.32637 5.73282 3.44928 5.8875 3.60417L5.9375 3.65417C6.13395 3.84639 6.38346 3.97515 6.65374 4.02423C6.92403 4.07331 7.20289 4.0401 7.45417 3.92917H7.50001C7.74642 3.82355 7.95433 3.64604 8.09802 3.41945C8.24171 3.19286 8.31478 2.92758 8.30834 2.65833V2.5C8.30834 2.05797 8.48393 1.63405 8.79649 1.32149C9.10905 1.00893 9.53298 0.833336 9.97501 0.833336C10.417 0.833336 10.841 1.00893 11.1535 1.32149C11.4661 1.63405 11.6417 2.05797 11.6417 2.5V2.57083C11.6352 2.84008 11.7083 3.10536 11.852 3.33195C11.9957 3.55854 12.2036 3.73605 12.45 3.84167C12.7013 3.9526 12.9801 3.98581 13.2504 3.93673C13.5207 3.88765 13.7702 3.75889 13.9667 3.56667L14.0167 3.51667C14.1714 3.36178 14.3553 3.23887 14.5576 3.15502C14.7599 3.07118 14.9768 3.02795 15.1958 3.02795C15.4149 3.02795 15.6317 3.07118 15.8341 3.15502C16.0364 3.23887 16.2203 3.36178 16.375 3.51667C16.5299 3.67135 16.6528 3.85525 16.7366 4.05759C16.8205 4.25993 16.8637 4.47676 16.8637 4.69583C16.8637 4.91491 16.8205 5.13173 16.7366 5.33408C16.6528 5.53642 16.5299 5.72032 16.375 5.875L16.325 5.925C16.1328 6.12145 16.004 6.37096 15.9549 6.64124C15.9059 6.91153 15.9391 7.19039 16.05 7.44167V7.5C16.1556 7.74641 16.3331 7.95432 16.5597 8.09801C16.7863 8.2417 17.0516 8.31477 17.3208 8.30833H17.5C17.942 8.30833 18.366 8.48392 18.6785 8.79648C18.9911 9.10904 19.1667 9.53297 19.1667 9.975C19.1667 10.417 18.9911 10.841 18.6785 11.1535C18.366 11.4661 17.942 11.6417 17.5 11.6417H17.4292C17.1599 11.6481 16.8947 11.7212 16.6681 11.8649C16.4415 12.0086 16.264 12.2165 16.1583 12.4629L16.1667 12.5Z" stroke="currentColor" stroke-width="1.5" stroke-linecap="round" stroke-linejoin="round"/>
</svg>
