<svg width="16" height="16" viewBox="0 0 16 16" fill="none" xmlns="http://www.w3.org/2000/svg">
  <mask id="mask0_4268_52945" style="mask-type:alpha" maskUnits="userSpaceOnUse" x="0" y="0" width="16" height="16">
    <rect width="16" height="16" fill="#D9D9D9"/>
  </mask>
  <g mask="url(#mask0_4268_52945)">
    <path d="M2.0166 11.3334V4.66671C2.0166 4.30004 2.14716 3.98615 2.40827 3.72504C2.66938 3.46393 2.98327 3.33337 3.34993 3.33337H12.6666C13.0333 3.33337 13.3472 3.46393 13.6083 3.72504C13.8694 3.98615 13.9999 4.30004 13.9999 4.66671V11.3334C13.9999 11.7 13.8694 12.0139 13.6083 12.275C13.3472 12.5362 13.0333 12.6667 12.6666 12.6667H3.34993C2.98327 12.6667 2.66938 12.5362 2.40827 12.275C2.14716 12.0139 2.0166 11.7 2.0166 11.3334ZM3.33327 11.3334H5.54994V4.66671H3.33327V11.3334ZM6.88327 11.3334H9.09994V4.66671H6.88327V11.3334ZM10.4333 11.3334H12.6499V4.66671H10.4333V11.3334Z" fill="currentColor"/>
  </g>
</svg>
