<svg width="12" height="12" viewBox="0 0 12 12" fill="none" xmlns="http://www.w3.org/2000/svg">
<mask id="mask0_129_10161" style="mask-type:alpha" maskUnits="userSpaceOnUse" x="0" y="0" width="12" height="12">
<rect width="12" height="12" fill="#D9D9D9"/>
</mask>
<g mask="url(#mask0_129_10161)">
<path d="M2.6 10.4996C2.29167 10.4996 2.03125 10.3933 1.81875 10.1808C1.60625 9.96833 1.5 9.70791 1.5 9.39958V2.54958C1.5 2.30791 1.6125 2.13916 1.8375 2.04332C2.0625 1.94749 2.25833 1.98291 2.425 2.14957L3.55 3.27458L2.875 3.94958L3.225 4.29958L3.9 3.62458L5.2 4.92458L4.525 5.59958L4.875 5.94958L5.55 5.27458L6.85 6.57458L6.175 7.24958L6.525 7.59958L7.2 6.92458L8.5 8.22458L7.825 8.89958L8.175 9.24958L8.85 8.57458L9.85 9.57458C10.0167 9.74124 10.0521 9.93708 9.95625 10.1621C9.86042 10.3871 9.69167 10.4996 9.45 10.4996H2.6ZM3 8.99958H7.15L3 4.84958V8.99958Z" fill="#3E4041"/>
</g>
</svg>
