<svg width="20" height="20" viewBox="0 0 20 20" fill="none" xmlns="http://www.w3.org/2000/svg">
<mask id="mask0_1922_79132" style="mask-type:alpha" maskUnits="userSpaceOnUse" x="0" y="0" width="20" height="20">
<rect width="20" height="20" fill="#D9D9D9"/>
</mask>
<g mask="url(#mask0_1922_79132)">
<path d="M1.66666 15V9.02084C1.66666 8.79862 1.70833 8.58682 1.79166 8.38543C1.875 8.18404 1.99305 8.00695 2.14583 7.85418L5.47916 4.52084C5.64583 4.35418 5.83333 4.22918 6.04166 4.14584C6.25 4.06251 6.45833 4.02084 6.66666 4.02084C6.875 4.02084 7.08333 4.06251 7.29166 4.14584C7.5 4.22918 7.6875 4.35418 7.85416 4.52084L11.1875 7.85418C11.3403 8.00695 11.4583 8.18404 11.5417 8.38543C11.625 8.58682 11.6667 8.79862 11.6667 9.02084V15C11.6667 15.4583 11.5035 15.8507 11.1771 16.1771C10.8507 16.5035 10.4583 16.6667 10 16.6667H3.33333C2.875 16.6667 2.48264 16.5035 2.15625 16.1771C1.82986 15.8507 1.66666 15.4583 1.66666 15ZM3.33333 15H5.83333V13.3333C5.83333 13.0972 5.91319 12.8993 6.07291 12.7396C6.23264 12.5799 6.43055 12.5 6.66666 12.5C6.90278 12.5 7.10069 12.5799 7.26041 12.7396C7.42014 12.8993 7.5 13.0972 7.5 13.3333V15H10V9.02084L6.66666 5.68751L3.33333 9.02084V15ZM13.3333 15.8333V7.64584L10.4375 4.75001C10.1736 4.48612 10.1111 4.18404 10.25 3.84376C10.3889 3.50348 10.6458 3.33334 11.0208 3.33334C11.1319 3.33334 11.2431 3.35765 11.3542 3.40626C11.4653 3.45487 11.5556 3.5139 11.625 3.58334L14.5208 6.47918C14.6736 6.63195 14.7917 6.80904 14.875 7.01043C14.9583 7.21182 15 7.42362 15 7.64584V15.8333C15 16.0695 14.9201 16.2674 14.7604 16.4271C14.6007 16.5868 14.4028 16.6667 14.1667 16.6667C13.9306 16.6667 13.7326 16.5868 13.5729 16.4271C13.4132 16.2674 13.3333 16.0695 13.3333 15.8333ZM16.6667 15.8333V6.27084L15.1458 4.75001C14.8819 4.48612 14.8194 4.18404 14.9583 3.84376C15.0972 3.50348 15.3542 3.33334 15.7292 3.33334C15.8403 3.33334 15.9514 3.35765 16.0625 3.40626C16.1736 3.45487 16.2639 3.5139 16.3333 3.58334L17.8542 5.10418C18.0069 5.25695 18.125 5.43404 18.2083 5.63543C18.2917 5.83682 18.3333 6.04862 18.3333 6.27084V15.8333C18.3333 16.0695 18.2535 16.2674 18.0937 16.4271C17.934 16.5868 17.7361 16.6667 17.5 16.6667C17.2639 16.6667 17.066 16.5868 16.9062 16.4271C16.7465 16.2674 16.6667 16.0695 16.6667 15.8333ZM6.66666 10.8333C6.43055 10.8333 6.23264 10.7535 6.07291 10.5938C5.91319 10.434 5.83333 10.2361 5.83333 10C5.83333 9.7639 5.91319 9.56598 6.07291 9.40626C6.23264 9.24654 6.43055 9.16668 6.66666 9.16668C6.90278 9.16668 7.10069 9.24654 7.26041 9.40626C7.42014 9.56598 7.5 9.7639 7.5 10C7.5 10.2361 7.42014 10.434 7.26041 10.5938C7.10069 10.7535 6.90278 10.8333 6.66666 10.8333Z" fill="#636769"/>
</g>
</svg>
