<svg width="20" height="20" viewBox="0 0 20 20" fill="none" xmlns="http://www.w3.org/2000/svg">
  <mask id="mask0_1295_77868" style="mask-type:alpha" maskUnits="userSpaceOnUse" x="0" y="0" width="20" height="20">
    <rect width="20" height="20" fill="#D9D9D9"/>
  </mask>
  <g mask="url(#mask0_1295_77868)">
    <path d="M4.99998 13.3333C4.54165 13.3333 4.14929 13.1701 3.8229 12.8437C3.49651 12.5173 3.33331 12.125 3.33331 11.6666C3.33331 11.2083 3.49651 10.8159 3.8229 10.4895C4.14929 10.1632 4.54165 9.99996 4.99998 9.99996C5.45831 9.99996 5.85067 10.1632 6.17706 10.4895C6.50345 10.8159 6.66665 11.2083 6.66665 11.6666C6.66665 12.125 6.50345 12.5173 6.17706 12.8437C5.85067 13.1701 5.45831 13.3333 4.99998 13.3333ZM15 13.3333C14.5416 13.3333 14.1493 13.1701 13.8229 12.8437C13.4965 12.5173 13.3333 12.125 13.3333 11.6666C13.3333 11.2083 13.4965 10.8159 13.8229 10.4895C14.1493 10.1632 14.5416 9.99996 15 9.99996C15.4583 9.99996 15.8507 10.1632 16.1771 10.4895C16.5035 10.8159 16.6666 11.2083 16.6666 11.6666C16.6666 12.125 16.5035 12.5173 16.1771 12.8437C15.8507 13.1701 15.4583 13.3333 15 13.3333ZM9.99998 12.5C9.41665 12.5 8.92359 12.2986 8.52081 11.8958C8.11804 11.493 7.91665 11 7.91665 10.4166C7.91665 9.83329 8.11804 9.34024 8.52081 8.93746C8.92359 8.53468 9.41665 8.33329 9.99998 8.33329C10.5833 8.33329 11.0764 8.53468 11.4791 8.93746C11.8819 9.34024 12.0833 9.83329 12.0833 10.4166C12.0833 11 11.8819 11.493 11.4791 11.8958C11.0764 12.2986 10.5833 12.5 9.99998 12.5ZM5.91665 17.5C6.11109 16.5416 6.58679 15.7465 7.34373 15.1145C8.10067 14.4826 8.98609 14.1666 9.99998 14.1666C11.0139 14.1666 11.8993 14.4826 12.6562 15.1145C13.4132 15.7465 13.8889 16.5416 14.0833 17.5H5.91665ZM1.66665 17.5C1.66665 16.5833 1.99304 15.7986 2.64581 15.1458C3.29859 14.493 4.08331 14.1666 4.99998 14.1666C5.23609 14.1666 5.45831 14.1875 5.66665 14.2291C5.87498 14.2708 6.07637 14.3333 6.27081 14.4166C5.85415 14.8194 5.50692 15.2812 5.22915 15.802C4.95137 16.3229 4.76387 16.8888 4.66665 17.5H1.66665ZM15.3333 17.5C15.2361 16.8888 15.0486 16.3229 14.7708 15.802C14.493 15.2812 14.1458 14.8194 13.7291 14.4166C13.9236 14.3333 14.125 14.2708 14.3333 14.2291C14.5416 14.1875 14.7639 14.1666 15 14.1666C15.9166 14.1666 16.7014 14.493 17.3541 15.1458C18.0069 15.7986 18.3333 16.5833 18.3333 17.5H15.3333ZM1.83331 9.99996L0.833313 8.66663L9.99998 1.66663L13.3333 4.20829V2.49996H15.8333V6.12496L19.1666 8.66663L18.1666 9.99996L9.99998 3.77079L1.83331 9.99996Z" fill="currentColor"/>
  </g>
</svg>
