<svg width="20" height="20" viewBox="0 0 20 20" fill="none" xmlns="http://www.w3.org/2000/svg">
<mask id="mask0_2796_118912" style="mask-type:alpha" maskUnits="userSpaceOnUse" x="0" y="0" width="20" height="20">
<rect width="20" height="20" fill="#D9D9D9"/>
</mask>
<g mask="url(#mask0_2796_118912)">
<path d="M4.99967 18.3337C4.54134 18.3337 4.14898 18.1705 3.82259 17.8441C3.4962 17.5177 3.33301 17.1253 3.33301 16.667V3.33366C3.33301 2.87533 3.4962 2.48296 3.82259 2.15658C4.14898 1.83019 4.54134 1.66699 4.99967 1.66699H10.9788C11.2011 1.66699 11.4129 1.70866 11.6143 1.79199C11.8156 1.87533 11.9927 1.99338 12.1455 2.14616L16.1872 6.18783C16.34 6.3406 16.458 6.51769 16.5413 6.71908C16.6247 6.92046 16.6663 7.13227 16.6663 7.35449V16.667C16.6663 17.1253 16.5031 17.5177 16.1768 17.8441C15.8504 18.1705 15.458 18.3337 14.9997 18.3337H4.99967ZM10.833 6.66699V3.33366H4.99967V16.667H14.9997V7.50033H11.6663C11.4302 7.50033 11.2323 7.42046 11.0726 7.26074C10.9129 7.10102 10.833 6.9031 10.833 6.66699Z" fill="#636769"/>
</g>
</svg>
