<svg width="24" height="24" viewBox="0 0 24 24" fill="none" xmlns="http://www.w3.org/2000/svg">
<mask id="mask0_2796_94508" style="mask-type:alpha" maskUnits="userSpaceOnUse" x="0" y="0" width="24" height="24">
<rect width="24" height="24" fill="#D9D9D9"/>
</mask>
<g mask="url(#mask0_2796_94508)">
<path d="M2.99999 18.0008C2.58332 18.0008 2.28332 17.8174 2.09999 17.4508C1.91666 17.0841 1.94999 16.7341 2.19999 16.4008L6.19999 11.0758C6.29999 10.9424 6.42082 10.8424 6.56249 10.7758C6.70416 10.7091 6.84999 10.6758 6.99999 10.6758C7.14999 10.6758 7.29582 10.7091 7.43749 10.7758C7.57916 10.8424 7.69999 10.9424 7.79999 11.0758L11.5 16.0008H19L14 9.35078L11.5 12.6508L10.25 11.0008L13.2 7.07578C13.3 6.94245 13.4208 6.84245 13.5625 6.77578C13.7042 6.70911 13.85 6.67578 14 6.67578C14.15 6.67578 14.2958 6.70911 14.4375 6.77578C14.5792 6.84245 14.7 6.94245 14.8 7.07578L21.8 16.4008C22.05 16.7341 22.0833 17.0841 21.9 17.4508C21.7167 17.8174 21.4167 18.0008 21 18.0008H2.99999ZM11.5 16.0008H19H11.2H12.9125H11.5ZM4.99999 16.0008H8.99999L6.99999 13.3258L4.99999 16.0008Z" fill="#3E4041"/>
</g>
</svg>
