<svg width="48" height="36" viewBox="0 0 48 36" fill="none" xmlns="http://www.w3.org/2000/svg">
<rect x="0.5" y="0.5" width="35" height="35" rx="17.5" fill="#FFF2CC"/>
<rect x="0.5" y="0.5" width="35" height="35" rx="17.5" stroke="#F2E5BE"/>
<mask id="mask0_4184_177599" style="mask-type:alpha" maskUnits="userSpaceOnUse" x="8" y="8" width="20" height="20">
<rect x="8" y="8" width="20" height="20" fill="#D9D9D9"/>
</mask>
<g mask="url(#mask0_4184_177599)">
<path d="M12.1667 25.5C11.7083 25.5 11.316 25.3368 10.9896 25.0104C10.6632 24.684 10.5 24.2917 10.5 23.8333V12.1667C10.5 11.7083 10.6632 11.316 10.9896 10.9896C11.316 10.6632 11.7083 10.5 12.1667 10.5H23.8333C24.2917 10.5 24.684 10.6632 25.0104 10.9896C25.3368 11.316 25.5 11.7083 25.5 12.1667V23.8333C25.5 24.2917 25.3368 24.684 25.0104 25.0104C24.684 25.3368 24.2917 25.5 23.8333 25.5H12.1667ZM12.1667 23.8333H23.8333V12.1667H12.1667V23.8333ZM14.6667 22.1667H18.8333C19.0694 22.1667 19.2674 22.0868 19.4271 21.9271C19.5868 21.7674 19.6667 21.5694 19.6667 21.3333C19.6667 21.0972 19.5868 20.8993 19.4271 20.7396C19.2674 20.5799 19.0694 20.5 18.8333 20.5H14.6667C14.4306 20.5 14.2326 20.5799 14.0729 20.7396C13.9132 20.8993 13.8333 21.0972 13.8333 21.3333C13.8333 21.5694 13.9132 21.7674 14.0729 21.9271C14.2326 22.0868 14.4306 22.1667 14.6667 22.1667ZM14.6667 18.8333H21.3333C21.5694 18.8333 21.7674 18.7535 21.9271 18.5938C22.0868 18.434 22.1667 18.2361 22.1667 18C22.1667 17.7639 22.0868 17.566 21.9271 17.4062C21.7674 17.2465 21.5694 17.1667 21.3333 17.1667H14.6667C14.4306 17.1667 14.2326 17.2465 14.0729 17.4062C13.9132 17.566 13.8333 17.7639 13.8333 18C13.8333 18.2361 13.9132 18.434 14.0729 18.5938C14.2326 18.7535 14.4306 18.8333 14.6667 18.8333ZM14.6667 15.5H21.3333C21.5694 15.5 21.7674 15.4201 21.9271 15.2604C22.0868 15.1007 22.1667 14.9028 22.1667 14.6667C22.1667 14.4306 22.0868 14.2326 21.9271 14.0729C21.7674 13.9132 21.5694 13.8333 21.3333 13.8333H14.6667C14.4306 13.8333 14.2326 13.9132 14.0729 14.0729C13.9132 14.2326 13.8333 14.4306 13.8333 14.6667C13.8333 14.9028 13.9132 15.1007 14.0729 15.2604C14.2326 15.4201 14.4306 15.5 14.6667 15.5Z" fill="#B54708"/>
</g>
</svg>
