<svg width="48" height="36" viewBox="0 0 48 36" fill="none" xmlns="http://www.w3.org/2000/svg">
<rect x="0.5" y="0.5" width="35" height="35" rx="17.5" fill="#F4F5F5"/>
<rect x="0.5" y="0.5" width="35" height="35" rx="17.5" stroke="#EFF0F0"/>
<mask id="mask0_community_2" style="mask-type:alpha" maskUnits="userSpaceOnUse" x="8" y="8" width="20" height="20">
<rect x="8" y="8" width="20" height="20" fill="#D9D9D9"/>
</mask>
<g mask="url(#mask0_community_2)">
<path d="M9.66666 23V17.0208C9.66666 16.7986 9.70833 16.5868 9.79166 16.3854C9.875 16.184 9.99305 16.007 10.1458 15.8542L13.4792 12.5208C13.6458 12.3542 13.8333 12.2292 14.0417 12.1458C14.25 12.0625 14.4583 12.0208 14.6667 12.0208C14.875 12.0208 15.0833 12.0625 15.2917 12.1458C15.5 12.2292 15.6875 12.3542 15.8542 12.5208L19.1875 15.8542C19.3403 16.007 19.4583 16.184 19.5417 16.3854C19.625 16.5868 19.6667 16.7986 19.6667 17.0208V23C19.6667 23.4583 19.5035 23.8507 19.1771 24.1771C18.8507 24.5035 18.4583 24.6667 18 24.6667H11.3333C10.875 24.6667 10.4826 24.5035 10.1562 24.1771C9.82986 23.8507 9.66666 23.4583 9.66666 23ZM11.3333 23H13.8333V21.3333C13.8333 21.0972 13.9132 20.8993 14.0729 20.7396C14.2326 20.5799 14.4306 20.5 14.6667 20.5C14.9028 20.5 15.1007 20.5799 15.2604 20.7396C15.4201 20.8993 15.5 21.0972 15.5 21.3333V23H18V17.0208L14.6667 13.6875L11.3333 17.0208V23ZM21.3333 23.8333V15.6458L18.4375 12.75C18.1736 12.4861 18.1111 12.184 18.25 11.8438C18.3889 11.5035 18.6458 11.3333 19.0208 11.3333C19.1319 11.3333 19.2431 11.3576 19.3542 11.4062C19.4653 11.4549 19.5556 11.5139 19.625 11.5833L22.5208 14.4792C22.6736 14.632 22.7917 14.809 22.875 15.0104C22.9583 15.2118 23 15.4236 23 15.6458V23.8333C23 24.0695 22.9201 24.2674 22.7604 24.4271C22.6007 24.5868 22.4028 24.6667 22.1667 24.6667C21.9306 24.6667 21.7326 24.5868 21.5729 24.4271C21.4132 24.2674 21.3333 24.0695 21.3333 23.8333ZM24.6667 23.8333V14.2708L23.1458 12.75C22.8819 12.4861 22.8194 12.184 22.9583 11.8438C23.0972 11.5035 23.3542 11.3333 23.7292 11.3333C23.8403 11.3333 23.9514 11.3576 24.0625 11.4062C24.1736 11.4549 24.2639 11.5139 24.3333 11.5833L25.8542 13.1042C26.0069 13.257 26.125 13.434 26.2083 13.6354C26.2917 13.8368 26.3333 14.0486 26.3333 14.2708V23.8333C26.3333 24.0695 26.2535 24.2674 26.0937 24.4271C25.934 24.5868 25.7361 24.6667 25.5 24.6667C25.2639 24.6667 25.066 24.5868 24.9062 24.4271C24.7465 24.2674 24.6667 24.0695 24.6667 23.8333ZM14.6667 18.8333C14.4306 18.8333 14.2326 18.7535 14.0729 18.5938C13.9132 18.434 13.8333 18.2361 13.8333 18C13.8333 17.7639 13.9132 17.566 14.0729 17.4062C14.2326 17.2465 14.4306 17.1667 14.6667 17.1667C14.9028 17.1667 15.1007 17.2465 15.2604 17.4062C15.4201 17.566 15.5 17.7639 15.5 18C15.5 18.2361 15.4201 18.434 15.2604 18.5938C15.1007 18.7535 14.9028 18.8333 14.6667 18.8333Z" fill="#3E4041"/>
</g>
</svg>
