<svg width="48" height="36" viewBox="0 0 48 36" fill="none" xmlns="http://www.w3.org/2000/svg">
<rect x="0.5" y="0.5" width="35" height="35" rx="17.5" fill="#F4F5F5"/>
<rect x="0.5" y="0.5" width="35" height="35" rx="17.5" stroke="#EFF0F0"/>
<mask id="mask0_4184_177567" style="mask-type:alpha" maskUnits="userSpaceOnUse" x="8" y="8" width="20" height="20">
<rect x="8" y="8" width="20" height="20" fill="#D9D9D9"/>
</mask>
<g mask="url(#mask0_4184_177567)">
<path d="M11.3334 24.6667C10.875 24.6667 10.4827 24.5035 10.1563 24.1771C9.82988 23.8507 9.66669 23.4584 9.66669 23V13C9.66669 12.5417 9.82988 12.1493 10.1563 11.823C10.4827 11.4966 10.875 11.3334 11.3334 11.3334H15.6459C15.8681 11.3334 16.0799 11.375 16.2813 11.4584C16.4827 11.5417 16.6597 11.6598 16.8125 11.8125L18 13H24.6667C25.125 13 25.5174 13.1632 25.8438 13.4896C26.1702 13.816 26.3334 14.2084 26.3334 14.6667V23C26.3334 23.4584 26.1702 23.8507 25.8438 24.1771C25.5174 24.5035 25.125 24.6667 24.6667 24.6667H11.3334ZM11.3334 23H24.6667V14.6667H17.3125L15.6459 13H11.3334V23Z" fill="#3E4041"/>
</g>
</svg>
