<svg width="48" height="36" viewBox="0 0 48 36" fill="none" xmlns="http://www.w3.org/2000/svg">
<rect x="0.5" y="0.5" width="35" height="35" rx="17.5" fill="#EDF5EB"/>
<rect x="0.5" y="0.5" width="35" height="35" rx="17.5" stroke="#D1E6CC"/>
<mask id="mask0_4184_177615" style="mask-type:alpha" maskUnits="userSpaceOnUse" x="8" y="8" width="20" height="20">
<rect x="8" y="8" width="20" height="20" fill="#D9D9D9"/>
</mask>
<g mask="url(#mask0_4184_177615)">
<path d="M17.25 17.9167L15 24.125C14.9861 24.1667 14.9514 24.2153 14.8958 24.2708L14.2292 24.9167C14.1042 25.0417 13.9618 25.0729 13.8021 25.0104C13.6424 24.9479 13.5486 24.8333 13.5208 24.6667L13.4375 23.7708L13.4583 23.5833L15.7917 17.125C16 17.3194 16.2257 17.4826 16.4688 17.6146C16.7118 17.7465 16.9722 17.8472 17.25 17.9167ZM18 17.1667C17.3056 17.1667 16.7153 16.9236 16.2292 16.4375C15.7431 15.9514 15.5 15.3611 15.5 14.6667C15.5 14.125 15.6563 13.6424 15.9688 13.2188C16.2813 12.7951 16.6806 12.5 17.1667 12.3333V11.3333C17.1667 11.0972 17.2465 10.8993 17.4063 10.7396C17.566 10.5799 17.7639 10.5 18 10.5C18.2361 10.5 18.434 10.5799 18.5938 10.7396C18.7535 10.8993 18.8333 11.0972 18.8333 11.3333V12.3333C19.3194 12.5 19.7188 12.7951 20.0312 13.2188C20.3438 13.6424 20.5 14.125 20.5 14.6667C20.5 15.3611 20.2569 15.9514 19.7708 16.4375C19.2847 16.9236 18.6944 17.1667 18 17.1667ZM18 15.5C18.2361 15.5 18.434 15.4201 18.5938 15.2604C18.7535 15.1007 18.8333 14.9028 18.8333 14.6667C18.8333 14.4306 18.7535 14.2326 18.5938 14.0729C18.434 13.9132 18.2361 13.8333 18 13.8333C17.7639 13.8333 17.566 13.9132 17.4063 14.0729C17.2465 14.2326 17.1667 14.4306 17.1667 14.6667C17.1667 14.9028 17.2465 15.1007 17.4063 15.2604C17.566 15.4201 17.7639 15.5 18 15.5ZM18.75 17.9167C19.0278 17.8472 19.2882 17.7465 19.5313 17.6146C19.7743 17.4826 20 17.3194 20.2083 17.125L22.5417 23.5833C22.5556 23.625 22.5625 23.6875 22.5625 23.7708L22.4792 24.6667C22.4514 24.8333 22.3576 24.9479 22.1979 25.0104C22.0382 25.0729 21.8958 25.0417 21.7708 24.9167L21.1042 24.2708L21 24.125L18.75 17.9167Z" fill="#198402"/>
</g>
</svg>
