<svg width="48" height="36" viewBox="0 0 48 36" fill="none" xmlns="http://www.w3.org/2000/svg">
<rect x="0.5" y="0.5" width="35" height="35" rx="17.5" fill="#ECF3FC"/>
<rect x="0.5" y="0.5" width="35" height="35" rx="17.5" stroke="#DBE9FA"/>
<mask id="mask0_4184_177585" style="mask-type:alpha" maskUnits="userSpaceOnUse" x="8" y="8" width="20" height="20">
<rect x="8" y="8" width="20" height="20" fill="#D9D9D9"/>
</mask>
<g mask="url(#mask0_4184_177585)">
<path d="M12.1667 25.5C11.7083 25.5 11.316 25.3368 10.9896 25.0105C10.6632 24.6841 10.5 24.2917 10.5 23.8334V12.1667C10.5 11.7084 10.6632 11.316 10.9896 10.9896C11.316 10.6632 11.7083 10.5 12.1667 10.5H15.6667C15.8472 10 16.1493 9.59726 16.5729 9.29171C16.9965 8.98615 17.4722 8.83337 18 8.83337C18.5278 8.83337 19.0035 8.98615 19.4271 9.29171C19.8507 9.59726 20.1528 10 20.3333 10.5H23.8333C24.2917 10.5 24.684 10.6632 25.0104 10.9896C25.3368 11.316 25.5 11.7084 25.5 12.1667V23.8334C25.5 24.2917 25.3368 24.6841 25.0104 25.0105C24.684 25.3368 24.2917 25.5 23.8333 25.5H12.1667ZM12.1667 23.8334H23.8333V12.1667H12.1667V23.8334ZM14.6667 22.1667H18.8333C19.0694 22.1667 19.2674 22.0868 19.4271 21.9271C19.5868 21.7674 19.6667 21.5695 19.6667 21.3334C19.6667 21.0973 19.5868 20.8993 19.4271 20.7396C19.2674 20.5799 19.0694 20.5 18.8333 20.5H14.6667C14.4306 20.5 14.2326 20.5799 14.0729 20.7396C13.9132 20.8993 13.8333 21.0973 13.8333 21.3334C13.8333 21.5695 13.9132 21.7674 14.0729 21.9271C14.2326 22.0868 14.4306 22.1667 14.6667 22.1667ZM14.6667 18.8334H21.3333C21.5694 18.8334 21.7674 18.7535 21.9271 18.5938C22.0868 18.4341 22.1667 18.2362 22.1667 18C22.1667 17.7639 22.0868 17.566 21.9271 17.4063C21.7674 17.2466 21.5694 17.1667 21.3333 17.1667H14.6667C14.4306 17.1667 14.2326 17.2466 14.0729 17.4063C13.9132 17.566 13.8333 17.7639 13.8333 18C13.8333 18.2362 13.9132 18.4341 14.0729 18.5938C14.2326 18.7535 14.4306 18.8334 14.6667 18.8334ZM14.6667 15.5H21.3333C21.5694 15.5 21.7674 15.4202 21.9271 15.2605C22.0868 15.1007 22.1667 14.9028 22.1667 14.6667C22.1667 14.4306 22.0868 14.2327 21.9271 14.073C21.7674 13.9132 21.5694 13.8334 21.3333 13.8334H14.6667C14.4306 13.8334 14.2326 13.9132 14.0729 14.073C13.9132 14.2327 13.8333 14.4306 13.8333 14.6667C13.8333 14.9028 13.9132 15.1007 14.0729 15.2605C14.2326 15.4202 14.4306 15.5 14.6667 15.5ZM18 11.5417C18.1806 11.5417 18.3299 11.4827 18.4479 11.3646C18.566 11.2466 18.625 11.0973 18.625 10.9167C18.625 10.7362 18.566 10.5868 18.4479 10.4688C18.3299 10.3507 18.1806 10.2917 18 10.2917C17.8194 10.2917 17.6701 10.3507 17.5521 10.4688C17.434 10.5868 17.375 10.7362 17.375 10.9167C17.375 11.0973 17.434 11.2466 17.5521 11.3646C17.6701 11.4827 17.8194 11.5417 18 11.5417Z" fill="#1D6BCD"/>
</g>
</svg>
