<svg width="16" height="16" viewBox="0 0 16 16" fill="none" xmlns="http://www.w3.org/2000/svg">
<mask id="mask0_129_10157" style="mask-type:alpha" maskUnits="userSpaceOnUse" x="0" y="0" width="16" height="16">
<rect width="16" height="16" fill="#D9D9D9"/>
</mask>
<g mask="url(#mask0_129_10157)">
<path d="M8.00008 13.3333C7.63341 13.3333 7.31953 13.2027 7.05841 12.9416C6.7973 12.6805 6.66675 12.3666 6.66675 12C6.66675 11.6333 6.7973 11.3194 7.05841 11.0583C7.31953 10.7972 7.63341 10.6666 8.00008 10.6666C8.36675 10.6666 8.68064 10.7972 8.94175 11.0583C9.20286 11.3194 9.33341 11.6333 9.33341 12C9.33341 12.3666 9.20286 12.6805 8.94175 12.9416C8.68064 13.2027 8.36675 13.3333 8.00008 13.3333ZM8.00008 9.33329C7.63341 9.33329 7.31953 9.20274 7.05841 8.94163C6.7973 8.68052 6.66675 8.36663 6.66675 7.99996C6.66675 7.63329 6.7973 7.3194 7.05841 7.05829C7.31953 6.79718 7.63341 6.66663 8.00008 6.66663C8.36675 6.66663 8.68064 6.79718 8.94175 7.05829C9.20286 7.3194 9.33341 7.63329 9.33341 7.99996C9.33341 8.36663 9.20286 8.68052 8.94175 8.94163C8.68064 9.20274 8.36675 9.33329 8.00008 9.33329ZM8.00008 5.33329C7.63341 5.33329 7.31953 5.20274 7.05841 4.94163C6.7973 4.68052 6.66675 4.36663 6.66675 3.99996C6.66675 3.63329 6.7973 3.3194 7.05841 3.05829C7.31953 2.79718 7.63341 2.66663 8.00008 2.66663C8.36675 2.66663 8.68064 2.79718 8.94175 3.05829C9.20286 3.3194 9.33341 3.63329 9.33341 3.99996C9.33341 4.36663 9.20286 4.68052 8.94175 4.94163C8.68064 5.20274 8.36675 5.33329 8.00008 5.33329Z" fill="#75787B"/>
</g>
</svg>
