<svg width="20" height="20" viewBox="0 0 20 20" fill="none" xmlns="http://www.w3.org/2000/svg">
  <mask id="mask0_4268_57735" style="mask-type:alpha" maskUnits="userSpaceOnUse" x="0" y="0" width="20" height="20">
    <rect width="20" height="20" fill="#D9D9D9"/>
  </mask>
  <g mask="url(#mask0_4268_57735)">
    <path d="M12.0832 9.33329L10.8332 8.62496V7.20829L12.0832 6.49996L13.3332 7.20829V8.62496L12.0832 9.33329ZM12.0832 11.25L14.9999 9.58329V6.24996L12.0832 4.58329L9.16656 6.24996V9.58329L12.0832 11.25ZM10.5832 15.8333H15.2499C15.1527 16.1944 14.986 16.4861 14.7499 16.7083C14.5138 16.9305 14.2082 17.0694 13.8332 17.125L4.74989 18.2291C4.29156 18.2986 3.87836 18.1909 3.51031 17.9062C3.14225 17.6215 2.93045 17.25 2.87489 16.7916L1.77072 7.68746C1.71517 7.22913 1.82628 6.8194 2.10406 6.45829C2.38184 6.09718 2.74989 5.88885 3.20822 5.83329L4.16656 5.70829V7.37496L3.41656 7.47913L4.54156 16.5833L10.5832 15.8333ZM7.49989 14.1666C7.04156 14.1666 6.6492 14.0034 6.32281 13.677C5.99642 13.3507 5.83323 12.9583 5.83323 12.5V3.33329C5.83323 2.87496 5.99642 2.4826 6.32281 2.15621C6.6492 1.82982 7.04156 1.66663 7.49989 1.66663H16.6666C17.1249 1.66663 17.5173 1.82982 17.8436 2.15621C18.17 2.4826 18.3332 2.87496 18.3332 3.33329V12.5C18.3332 12.9583 18.17 13.3507 17.8436 13.677C17.5173 14.0034 17.1249 14.1666 16.6666 14.1666H7.49989ZM7.49989 12.5H16.6666V3.33329H7.49989V12.5Z" fill="currentColor"/>
  </g>
</svg>
