<svg width="20" height="20" viewBox="0 0 20 20" fill="none" xmlns="http://www.w3.org/2000/svg">
<mask id="mask0_137_4389" style="mask-type:alpha" maskUnits="userSpaceOnUse" x="0" y="0" width="20" height="20">
<rect width="20" height="20" fill="#D9D9D9"/>
</mask>
<g mask="url(#mask0_137_4389)">
<path d="M9.16665 11.6667H10.8333V9.16669H13.3333V7.50002H10.8333V5.00002H9.16665V7.50002H6.66665V9.16669H9.16665V11.6667ZM9.99998 16.125C11.6944 14.5695 12.9514 13.1563 13.7708 11.8854C14.5903 10.6146 15 9.48613 15 8.50002C15 6.98613 14.5173 5.74655 13.5521 4.78127C12.5868 3.81599 11.4028 3.33335 9.99998 3.33335C8.5972 3.33335 7.41317 3.81599 6.4479 4.78127C5.48262 5.74655 4.99998 6.98613 4.99998 8.50002C4.99998 9.48613 5.4097 10.6146 6.22915 11.8854C7.04859 13.1563 8.30553 14.5695 9.99998 16.125ZM9.99998 18.3334C7.76387 16.4306 6.09373 14.6632 4.98956 13.0313C3.8854 11.3993 3.33331 9.88891 3.33331 8.50002C3.33331 6.41669 4.00345 4.75696 5.34373 3.52085C6.68401 2.28474 8.23609 1.66669 9.99998 1.66669C11.7639 1.66669 13.316 2.28474 14.6562 3.52085C15.9965 4.75696 16.6666 6.41669 16.6666 8.50002C16.6666 9.88891 16.1146 11.3993 15.0104 13.0313C13.9062 14.6632 12.2361 16.4306 9.99998 18.3334Z" fill="#75787B"/>
</g>
</svg>
