<svg width="20" height="20" viewBox="0 0 20 20" fill="none" xmlns="http://www.w3.org/2000/svg">
  <mask id="mask0_1295_77879" style="mask-type:alpha" maskUnits="userSpaceOnUse" x="0" y="0" width="20" height="20">
    <rect width="20" height="20" fill="#D9D9D9"/>
  </mask>
  <g mask="url(#mask0_1295_77879)">
    <path d="M9.16671 11.6666H10.8334V9.16663H13.3334V7.49996H10.8334V4.99996H9.16671V7.49996H6.66671V9.16663H9.16671V11.6666ZM10 16.125C11.6945 14.5694 12.9514 13.1562 13.7709 11.8854C14.5903 10.6145 15 9.48607 15 8.49996C15 6.98607 14.5174 5.74649 13.5521 4.78121C12.5868 3.81593 11.4028 3.33329 10 3.33329C8.59726 3.33329 7.41324 3.81593 6.44796 4.78121C5.48268 5.74649 5.00004 6.98607 5.00004 8.49996C5.00004 9.48607 5.40976 10.6145 6.22921 11.8854C7.04865 13.1562 8.3056 14.5694 10 16.125ZM10 18.3333C7.76393 16.4305 6.09379 14.6632 4.98962 13.0312C3.88546 11.3993 3.33337 9.88885 3.33337 8.49996C3.33337 6.41663 4.00351 4.7569 5.34379 3.52079C6.68407 2.28468 8.23615 1.66663 10 1.66663C11.7639 1.66663 13.316 2.28468 14.6563 3.52079C15.9966 4.7569 16.6667 6.41663 16.6667 8.49996C16.6667 9.88885 16.1146 11.3993 15.0105 13.0312C13.9063 14.6632 12.2362 16.4305 10 18.3333Z" fill="currentColor"/>
  </g>
</svg>
