<svg width="20" height="20" viewBox="0 0 20 20" fill="none" xmlns="http://www.w3.org/2000/svg">
<mask id="mask0_4074_59580" style="mask-type:alpha" maskUnits="userSpaceOnUse" x="0" y="0" width="20" height="20">
<rect width="20" height="20" fill="#D9D9D9"/>
</mask>
<g mask="url(#mask0_4074_59580)">
<path d="M6.08331 17.5C5.55554 17.5 5.10415 17.309 4.72915 16.9271C4.35415 16.5451 4.16665 16.0903 4.16665 15.5625V7.83333L2.64581 4.16667H1.66665C1.43054 4.16667 1.23262 4.08681 1.0729 3.92708C0.913174 3.76736 0.833313 3.56944 0.833313 3.33333C0.833313 3.09722 0.913174 2.89931 1.0729 2.73958C1.23262 2.57986 1.43054 2.5 1.66665 2.5H3.20831C3.37498 2.5 3.52776 2.54861 3.66665 2.64583C3.80554 2.74306 3.9097 2.86806 3.97915 3.02083L5.14581 5.83333H17.4583C17.7778 5.83333 18.0208 5.96528 18.1875 6.22917C18.3541 6.49306 18.3611 6.76389 18.2083 7.04167L15.8333 11.6875C16.5416 11.7986 17.1354 12.125 17.6146 12.6667C18.0937 13.2083 18.3333 13.8472 18.3333 14.5833C18.3333 15.3889 18.0521 16.0764 17.4896 16.6458C16.9271 17.2153 16.243 17.5 15.4375 17.5C14.618 17.5 13.9271 17.2153 13.3646 16.6458C12.8021 16.0764 12.5208 15.3889 12.5208 14.5833C12.5208 14.3056 12.5555 14.0486 12.625 13.8125C12.6944 13.5764 12.7916 13.3472 12.9166 13.125L10.1875 12.875L7.68748 16.625C7.50692 16.9028 7.27429 17.1181 6.98956 17.2708C6.70484 17.4236 6.40276 17.5 6.08331 17.5ZM14.0416 11.5625L16.1041 7.5H5.83331L6.87498 10C6.98609 10.2778 7.16317 10.5104 7.40623 10.6979C7.64929 10.8854 7.93054 10.9931 8.24998 11.0208L14.0416 11.5625ZM6.10415 15.8125C6.13192 15.8125 6.19442 15.7778 6.29165 15.7083L8.31248 12.7083C7.63192 12.6389 7.0972 12.4757 6.70831 12.2188C6.31942 11.9618 6.02776 11.6944 5.83331 11.4167V15.5833C5.83331 15.6528 5.86109 15.7083 5.91665 15.75C5.9722 15.7917 6.0347 15.8125 6.10415 15.8125ZM15.4166 15.8333C15.7778 15.8333 16.0764 15.7118 16.3125 15.4687C16.5486 15.2257 16.6666 14.9306 16.6666 14.5833C16.6666 14.2222 16.5486 13.9236 16.3125 13.6875C16.0764 13.4514 15.7778 13.3333 15.4166 13.3333C15.0694 13.3333 14.7743 13.4514 14.5312 13.6875C14.2882 13.9236 14.1666 14.2222 14.1666 14.5833C14.1666 14.9306 14.2882 15.2257 14.5312 15.4687C14.7743 15.7118 15.0694 15.8333 15.4166 15.8333Z" fill="#636769"/>
</g>
</svg>
