<svg width="20" height="20" viewBox="0 0 20 20" fill="none" xmlns="http://www.w3.org/2000/svg">
<mask id="mask0_137_4400" style="mask-type:alpha" maskUnits="userSpaceOnUse" x="0" y="0" width="20" height="20">
<rect width="20" height="20" fill="#D9D9D9"/>
</mask>
<g mask="url(#mask0_137_4400)">
<path d="M5.00001 13.3334C4.54168 13.3334 4.14932 13.1702 3.82293 12.8438C3.49654 12.5174 3.33334 12.125 3.33334 11.6667C3.33334 11.2084 3.49654 10.816 3.82293 10.4896C4.14932 10.1632 4.54168 10 5.00001 10C5.45834 10 5.8507 10.1632 6.17709 10.4896C6.50348 10.816 6.66668 11.2084 6.66668 11.6667C6.66668 12.125 6.50348 12.5174 6.17709 12.8438C5.8507 13.1702 5.45834 13.3334 5.00001 13.3334ZM15 13.3334C14.5417 13.3334 14.1493 13.1702 13.8229 12.8438C13.4965 12.5174 13.3333 12.125 13.3333 11.6667C13.3333 11.2084 13.4965 10.816 13.8229 10.4896C14.1493 10.1632 14.5417 10 15 10C15.4583 10 15.8507 10.1632 16.1771 10.4896C16.5035 10.816 16.6667 11.2084 16.6667 11.6667C16.6667 12.125 16.5035 12.5174 16.1771 12.8438C15.8507 13.1702 15.4583 13.3334 15 13.3334ZM10 12.5C9.41668 12.5 8.92362 12.2986 8.52084 11.8959C8.11807 11.4931 7.91668 11 7.91668 10.4167C7.91668 9.83335 8.11807 9.3403 8.52084 8.93752C8.92362 8.53474 9.41668 8.33335 10 8.33335C10.5833 8.33335 11.0764 8.53474 11.4792 8.93752C11.882 9.3403 12.0833 9.83335 12.0833 10.4167C12.0833 11 11.882 11.4931 11.4792 11.8959C11.0764 12.2986 10.5833 12.5 10 12.5ZM5.91668 17.5C6.11112 16.5417 6.58682 15.7465 7.34376 15.1146C8.10071 14.4827 8.98612 14.1667 10 14.1667C11.0139 14.1667 11.8993 14.4827 12.6563 15.1146C13.4132 15.7465 13.8889 16.5417 14.0833 17.5H5.91668ZM1.66668 17.5C1.66668 16.5834 1.99307 15.7986 2.64584 15.1459C3.29862 14.4931 4.08334 14.1667 5.00001 14.1667C5.23612 14.1667 5.45834 14.1875 5.66668 14.2292C5.87501 14.2709 6.0764 14.3334 6.27084 14.4167C5.85418 14.8195 5.50696 15.2813 5.22918 15.8021C4.9514 16.3229 4.7639 16.8889 4.66668 17.5H1.66668ZM15.3333 17.5C15.2361 16.8889 15.0486 16.3229 14.7708 15.8021C14.4931 15.2813 14.1458 14.8195 13.7292 14.4167C13.9236 14.3334 14.125 14.2709 14.3333 14.2292C14.5417 14.1875 14.7639 14.1667 15 14.1667C15.9167 14.1667 16.7014 14.4931 17.3542 15.1459C18.007 15.7986 18.3333 16.5834 18.3333 17.5H15.3333ZM1.83334 10L0.833344 8.66669L10 1.66669L13.3333 4.20835V2.50002H15.8333V6.12502L19.1667 8.66669L18.1667 10L10 3.77085L1.83334 10Z" fill="#75787B"/>
</g>
</svg>
