<svg width="56" height="56" viewBox="0 0 56 56" fill="none" xmlns="http://www.w3.org/2000/svg">
<rect x="0.5" y="0.5" width="55" height="55" rx="11.5" fill="white"/>
<rect x="0.5" y="0.5" width="55" height="55" rx="11.5" stroke="#D8D9DA"/>
<mask id="mask0_2740_140487" style="mask-type:alpha" maskUnits="userSpaceOnUse" x="12" y="12" width="32" height="32">
<rect x="12" y="12" width="32" height="32" fill="#D9D9D9"/>
</mask>
<g mask="url(#mask0_2740_140487)">
<path d="M27.9998 30.2999C27.7776 30.2999 27.5609 30.2721 27.3498 30.2165C27.1387 30.161 26.9331 30.0776 26.7331 29.9665L15.4665 23.8332C15.222 23.6999 15.0498 23.5332 14.9498 23.3332C14.8498 23.1332 14.7998 22.911 14.7998 22.6665C14.7998 22.4221 14.8498 22.1999 14.9498 21.9999C15.0498 21.7999 15.222 21.6332 15.4665 21.4999L26.7331 15.3665C26.9331 15.2554 27.1387 15.1721 27.3498 15.1165C27.5609 15.061 27.7776 15.0332 27.9998 15.0332C28.222 15.0332 28.4387 15.061 28.6498 15.1165C28.8609 15.1721 29.0665 15.2554 29.2665 15.3665L40.5331 21.4999C40.7776 21.6332 40.9498 21.7999 41.0498 21.9999C41.1498 22.1999 41.1998 22.4221 41.1998 22.6665C41.1998 22.911 41.1498 23.1332 41.0498 23.3332C40.9498 23.5332 40.7776 23.6999 40.5331 23.8332L29.2665 29.9665C29.0665 30.0776 28.8609 30.161 28.6498 30.2165C28.4387 30.2721 28.222 30.2999 27.9998 30.2999ZM27.9998 27.6332L37.0998 22.6665L27.9998 17.6999L18.8998 22.6665L27.9998 27.6332ZM27.9998 32.9665L38.4665 27.2665C38.5109 27.2443 38.722 27.1888 39.0998 27.0999C39.4776 27.0999 39.7943 27.2276 40.0498 27.4832C40.3054 27.7388 40.4331 28.0554 40.4331 28.4332C40.4331 28.6776 40.3776 28.8999 40.2665 29.0999C40.1554 29.2999 39.9776 29.4665 39.7331 29.5999L29.2665 35.2999C29.0665 35.411 28.8609 35.4943 28.6498 35.5499C28.4387 35.6054 28.222 35.6332 27.9998 35.6332C27.7776 35.6332 27.5609 35.6054 27.3498 35.5499C27.1387 35.4943 26.9331 35.411 26.7331 35.2999L16.2665 29.5999C16.022 29.4665 15.8442 29.2999 15.7331 29.0999C15.622 28.8999 15.5665 28.6776 15.5665 28.4332C15.5665 28.0554 15.6942 27.7388 15.9498 27.4832C16.2054 27.2276 16.522 27.0999 16.8998 27.0999C17.0109 27.0999 17.1165 27.1165 17.2165 27.1499C17.3165 27.1832 17.422 27.2221 17.5331 27.2665L27.9998 32.9665ZM27.9998 38.2999L38.4665 32.5999C38.5109 32.5776 38.722 32.5221 39.0998 32.4332C39.4776 32.4332 39.7943 32.561 40.0498 32.8165C40.3054 33.0721 40.4331 33.3888 40.4331 33.7665C40.4331 34.011 40.3776 34.2332 40.2665 34.4332C40.1554 34.6332 39.9776 34.7999 39.7331 34.9332L29.2665 40.6332C29.0665 40.7443 28.8609 40.8276 28.6498 40.8832C28.4387 40.9388 28.222 40.9665 27.9998 40.9665C27.7776 40.9665 27.5609 40.9388 27.3498 40.8832C27.1387 40.8276 26.9331 40.7443 26.7331 40.6332L16.2665 34.9332C16.022 34.7999 15.8442 34.6332 15.7331 34.4332C15.622 34.2332 15.5665 34.011 15.5665 33.7665C15.5665 33.3888 15.6942 33.0721 15.9498 32.8165C16.2054 32.561 16.522 32.4332 16.8998 32.4332C17.0109 32.4332 17.1165 32.4499 17.2165 32.4832C17.3165 32.5165 17.422 32.5554 17.5331 32.5999L27.9998 38.2999Z" fill="#3E4041"/>
</g>
</svg>
