<svg width="20" height="20" viewBox="0 0 20 20" fill="none" xmlns="http://www.w3.org/2000/svg">
<mask id="mask0_2697_55464" style="mask-type:alpha" maskUnits="userSpaceOnUse" x="0" y="0" width="20" height="20">
<rect width="20" height="20" fill="#D9D9D9"/>
</mask>
<g mask="url(#mask0_2697_55464)">
<path d="M9.16699 11.666H10.8337C11.0698 11.666 11.2677 11.5862 11.4274 11.4264C11.5871 11.2667 11.667 11.0688 11.667 10.8327C11.667 10.5966 11.5871 10.3987 11.4274 10.2389C11.2677 10.0792 11.0698 9.99935 10.8337 9.99935H9.16699C8.93088 9.99935 8.73296 10.0792 8.57324 10.2389C8.41352 10.3987 8.33366 10.5966 8.33366 10.8327C8.33366 11.0688 8.41352 11.2667 8.57324 11.4264C8.73296 11.5862 8.93088 11.666 9.16699 11.666ZM9.16699 9.16602H14.167C14.4031 9.16602 14.601 9.08615 14.7607 8.92643C14.9205 8.76671 15.0003 8.56879 15.0003 8.33268C15.0003 8.09657 14.9205 7.89865 14.7607 7.73893C14.601 7.57921 14.4031 7.49935 14.167 7.49935H9.16699C8.93088 7.49935 8.73296 7.57921 8.57324 7.73893C8.41352 7.89865 8.33366 8.09657 8.33366 8.33268C8.33366 8.56879 8.41352 8.76671 8.57324 8.92643C8.73296 9.08615 8.93088 9.16602 9.16699 9.16602ZM9.16699 6.66602H14.167C14.4031 6.66602 14.601 6.58615 14.7607 6.42643C14.9205 6.26671 15.0003 6.06879 15.0003 5.83268C15.0003 5.59657 14.9205 5.39865 14.7607 5.23893C14.601 5.07921 14.4031 4.99935 14.167 4.99935H9.16699C8.93088 4.99935 8.73296 5.07921 8.57324 5.23893C8.41352 5.39865 8.33366 5.59657 8.33366 5.83268C8.33366 6.06879 8.41352 6.26671 8.57324 6.42643C8.73296 6.58615 8.93088 6.66602 9.16699 6.66602ZM6.66699 14.9993C6.20866 14.9993 5.8163 14.8362 5.48991 14.5098C5.16352 14.1834 5.00033 13.791 5.00033 13.3327V3.33268C5.00033 2.87435 5.16352 2.48199 5.48991 2.1556C5.8163 1.82921 6.20866 1.66602 6.66699 1.66602H16.667C17.1253 1.66602 17.5177 1.82921 17.8441 2.1556C18.1705 2.48199 18.3337 2.87435 18.3337 3.33268V13.3327C18.3337 13.791 18.1705 14.1834 17.8441 14.5098C17.5177 14.8362 17.1253 14.9993 16.667 14.9993H6.66699ZM6.66699 13.3327H16.667V3.33268H6.66699V13.3327ZM3.33366 18.3327C2.87533 18.3327 2.48296 18.1695 2.15658 17.8431C1.83019 17.5167 1.66699 17.1243 1.66699 16.666V5.83268C1.66699 5.59657 1.74685 5.39865 1.90658 5.23893C2.0663 5.07921 2.26421 4.99935 2.50033 4.99935C2.73644 4.99935 2.93435 5.07921 3.09408 5.23893C3.2538 5.39865 3.33366 5.59657 3.33366 5.83268V16.666H14.167C14.4031 16.666 14.601 16.7459 14.7607 16.9056C14.9205 17.0653 15.0003 17.2632 15.0003 17.4993C15.0003 17.7355 14.9205 17.9334 14.7607 18.0931C14.601 18.2528 14.4031 18.3327 14.167 18.3327H3.33366Z" fill="#3E4041"/>
</g>
</svg>
