<svg width="20" height="20" viewBox="0 0 20 20" fill="none" xmlns="http://www.w3.org/2000/svg">
<mask id="mask0_1922_79458" style="mask-type:alpha" maskUnits="userSpaceOnUse" x="0" y="0" width="20" height="20">
<rect width="20" height="20" fill="#D9D9D9"/>
</mask>
<g mask="url(#mask0_1922_79458)">
<path d="M9.16666 11.6667H10.8333C11.0694 11.6667 11.2674 11.5868 11.4271 11.4271C11.5868 11.2674 11.6667 11.0694 11.6667 10.8333C11.6667 10.5972 11.5868 10.3993 11.4271 10.2396C11.2674 10.0799 11.0694 10 10.8333 10H9.16666C8.93055 10 8.73264 10.0799 8.57291 10.2396C8.41319 10.3993 8.33333 10.5972 8.33333 10.8333C8.33333 11.0694 8.41319 11.2674 8.57291 11.4271C8.73264 11.5868 8.93055 11.6667 9.16666 11.6667ZM9.16666 9.16667H14.1667C14.4028 9.16667 14.6007 9.08681 14.7604 8.92708C14.9201 8.76736 15 8.56944 15 8.33333C15 8.09722 14.9201 7.8993 14.7604 7.73958C14.6007 7.57986 14.4028 7.5 14.1667 7.5H9.16666C8.93055 7.5 8.73264 7.57986 8.57291 7.73958C8.41319 7.8993 8.33333 8.09722 8.33333 8.33333C8.33333 8.56944 8.41319 8.76736 8.57291 8.92708C8.73264 9.08681 8.93055 9.16667 9.16666 9.16667ZM9.16666 6.66667H14.1667C14.4028 6.66667 14.6007 6.5868 14.7604 6.42708C14.9201 6.26736 15 6.06944 15 5.83333C15 5.59722 14.9201 5.3993 14.7604 5.23958C14.6007 5.07986 14.4028 5 14.1667 5H9.16666C8.93055 5 8.73264 5.07986 8.57291 5.23958C8.41319 5.3993 8.33333 5.59722 8.33333 5.83333C8.33333 6.06944 8.41319 6.26736 8.57291 6.42708C8.73264 6.5868 8.93055 6.66667 9.16666 6.66667ZM6.66666 15C6.20833 15 5.81597 14.8368 5.48958 14.5104C5.16319 14.184 5 13.7917 5 13.3333V3.33333C5 2.875 5.16319 2.48264 5.48958 2.15625C5.81597 1.82986 6.20833 1.66667 6.66666 1.66667H16.6667C17.125 1.66667 17.5174 1.82986 17.8437 2.15625C18.1701 2.48264 18.3333 2.875 18.3333 3.33333V13.3333C18.3333 13.7917 18.1701 14.184 17.8437 14.5104C17.5174 14.8368 17.125 15 16.6667 15H6.66666ZM6.66666 13.3333H16.6667V3.33333H6.66666V13.3333ZM3.33333 18.3333C2.875 18.3333 2.48264 18.1701 2.15625 17.8437C1.82986 17.5174 1.66666 17.125 1.66666 16.6667V5.83333C1.66666 5.59722 1.74653 5.3993 1.90625 5.23958C2.06597 5.07986 2.26389 5 2.5 5C2.73611 5 2.93403 5.07986 3.09375 5.23958C3.25347 5.3993 3.33333 5.59722 3.33333 5.83333V16.6667H14.1667C14.4028 16.6667 14.6007 16.7465 14.7604 16.9062C14.9201 17.066 15 17.2639 15 17.5C15 17.7361 14.9201 17.934 14.7604 18.0937C14.6007 18.2535 14.4028 18.3333 14.1667 18.3333H3.33333Z" fill="#636769"/>
</g>
</svg>
