<svg width="20" height="20" viewBox="0 0 20 20" fill="none" xmlns="http://www.w3.org/2000/svg">
<mask id="mask0_2796_82306" style="mask-type:alpha" maskUnits="userSpaceOnUse" x="0" y="0" width="20" height="20">
<rect width="20" height="20" fill="#D9D9D9"/>
</mask>
<g mask="url(#mask0_2796_82306)">
<path d="M4.99967 18.3327C4.54134 18.3327 4.14898 18.1695 3.82259 17.8431C3.4962 17.5167 3.33301 17.1243 3.33301 16.666V3.33268C3.33301 2.87435 3.4962 2.48199 3.82259 2.1556C4.14898 1.82921 4.54134 1.66602 4.99967 1.66602H10.9788C11.2011 1.66602 11.4129 1.70768 11.6143 1.79102C11.8156 1.87435 11.9927 1.9924 12.1455 2.14518L16.1872 6.18685C16.34 6.33963 16.458 6.51671 16.5413 6.7181C16.6247 6.91949 16.6663 7.13129 16.6663 7.35352V16.666C16.6663 17.1243 16.5031 17.5167 16.1768 17.8431C15.8504 18.1695 15.458 18.3327 14.9997 18.3327H4.99967ZM10.833 6.66602V3.33268H4.99967V16.666H14.9997V7.49935H11.6663C11.4302 7.49935 11.2323 7.41949 11.0726 7.25977C10.9129 7.10004 10.833 6.90213 10.833 6.66602Z" fill="#636769"/>
</g>
</svg>
