<svg width="20" height="20" viewBox="0 0 20 20" fill="none" xmlns="http://www.w3.org/2000/svg">
  <mask id="mask0_1885_91905" style="mask-type:alpha" maskUnits="userSpaceOnUse" x="0" y="0" width="20" height="20">
    <rect width="20" height="20" fill="#D9D9D9"/>
  </mask>
  <g mask="url(#mask0_1885_91905)">
    <path d="M9.16663 10.8333H4.99996C4.76385 10.8333 4.56593 10.7534 4.40621 10.5937C4.24649 10.434 4.16663 10.2361 4.16663 9.99996C4.16663 9.76385 4.24649 9.56593 4.40621 9.40621C4.56593 9.24649 4.76385 9.16663 4.99996 9.16663H9.16663V4.99996C9.16663 4.76385 9.24649 4.56593 9.40621 4.40621C9.56593 4.24649 9.76385 4.16663 9.99996 4.16663C10.2361 4.16663 10.434 4.24649 10.5937 4.40621C10.7534 4.56593 10.8333 4.76385 10.8333 4.99996V9.16663H15C15.2361 9.16663 15.434 9.24649 15.5937 9.40621C15.7534 9.56593 15.8333 9.76385 15.8333 9.99996C15.8333 10.2361 15.7534 10.434 15.5937 10.5937C15.434 10.7534 15.2361 10.8333 15 10.8333H10.8333V15C10.8333 15.2361 10.7534 15.434 10.5937 15.5937C10.434 15.7534 10.2361 15.8333 9.99996 15.8333C9.76385 15.8333 9.56593 15.7534 9.40621 15.5937C9.24649 15.434 9.16663 15.2361 9.16663 15V10.8333Z" fill="currentColor"/>
  </g>
</svg>
