<svg width="20" height="20" viewBox="0 0 20 20" fill="none" xmlns="http://www.w3.org/2000/svg">
<mask id="mask0_1844_82350" style="mask-type:alpha" maskUnits="userSpaceOnUse" x="0" y="0" width="20" height="20">
<rect width="20" height="20" fill="#D9D9D9"/>
</mask>
<g mask="url(#mask0_1844_82350)">
<path d="M9.16675 10.8332H5.00008C4.76397 10.8332 4.56605 10.7533 4.40633 10.5936C4.24661 10.4339 4.16675 10.2359 4.16675 9.99984C4.16675 9.76373 4.24661 9.56581 4.40633 9.40609C4.56605 9.24637 4.76397 9.1665 5.00008 9.1665H9.16675V4.99984C9.16675 4.76373 9.24661 4.56581 9.40633 4.40609C9.56605 4.24637 9.76397 4.1665 10.0001 4.1665C10.2362 4.1665 10.4341 4.24637 10.5938 4.40609C10.7536 4.56581 10.8334 4.76373 10.8334 4.99984V9.1665H15.0001C15.2362 9.1665 15.4341 9.24637 15.5938 9.40609C15.7536 9.56581 15.8334 9.76373 15.8334 9.99984C15.8334 10.2359 15.7536 10.4339 15.5938 10.5936C15.4341 10.7533 15.2362 10.8332 15.0001 10.8332H10.8334V14.9998C10.8334 15.2359 10.7536 15.4339 10.5938 15.5936C10.4341 15.7533 10.2362 15.8332 10.0001 15.8332C9.76397 15.8332 9.56605 15.7533 9.40633 15.5936C9.24661 15.4339 9.16675 15.2359 9.16675 14.9998V10.8332Z" fill="#DBE9FA"/>
</g>
</svg>
