<svg width="20" height="20" viewBox="0 0 20 20" fill="none" xmlns="http://www.w3.org/2000/svg">
<mask id="mask0_3139_133080" style="mask-type:alpha" maskUnits="userSpaceOnUse" x="0" y="0" width="20" height="20">
<rect width="20" height="20" fill="#D9D9D9"/>
</mask>
<g mask="url(#mask0_3139_133080)">
<path d="M4.16667 17.4997C3.70833 17.4997 3.31597 17.3365 2.98958 17.0101C2.66319 16.6837 2.5 16.2913 2.5 15.833V4.16634C2.5 3.70801 2.66319 3.31565 2.98958 2.98926C3.31597 2.66287 3.70833 2.49967 4.16667 2.49967H7.66667C7.84722 1.99967 8.14931 1.5969 8.57292 1.29134C8.99653 0.985786 9.47222 0.833008 10 0.833008C10.5278 0.833008 11.0035 0.985786 11.4271 1.29134C11.8507 1.5969 12.1528 1.99967 12.3333 2.49967H15.8333C16.2917 2.49967 16.684 2.66287 17.0104 2.98926C17.3368 3.31565 17.5 3.70801 17.5 4.16634V15.833C17.5 16.2913 17.3368 16.6837 17.0104 17.0101C16.684 17.3365 16.2917 17.4997 15.8333 17.4997H4.16667ZM4.16667 15.833H15.8333V4.16634H4.16667V15.833ZM6.66667 14.1663H10.8333C11.0694 14.1663 11.2674 14.0865 11.4271 13.9268C11.5868 13.767 11.6667 13.5691 11.6667 13.333C11.6667 13.0969 11.5868 12.899 11.4271 12.7393C11.2674 12.5795 11.0694 12.4997 10.8333 12.4997H6.66667C6.43056 12.4997 6.23264 12.5795 6.07292 12.7393C5.91319 12.899 5.83333 13.0969 5.83333 13.333C5.83333 13.5691 5.91319 13.767 6.07292 13.9268C6.23264 14.0865 6.43056 14.1663 6.66667 14.1663ZM6.66667 10.833H13.3333C13.5694 10.833 13.7674 10.7531 13.9271 10.5934C14.0868 10.4337 14.1667 10.2358 14.1667 9.99967C14.1667 9.76356 14.0868 9.56565 13.9271 9.40592C13.7674 9.2462 13.5694 9.16634 13.3333 9.16634H6.66667C6.43056 9.16634 6.23264 9.2462 6.07292 9.40592C5.91319 9.56565 5.83333 9.76356 5.83333 9.99967C5.83333 10.2358 5.91319 10.4337 6.07292 10.5934C6.23264 10.7531 6.43056 10.833 6.66667 10.833ZM6.66667 7.49967H13.3333C13.5694 7.49967 13.7674 7.41981 13.9271 7.26009C14.0868 7.10037 14.1667 6.90245 14.1667 6.66634C14.1667 6.43023 14.0868 6.23231 13.9271 6.07259C13.7674 5.91287 13.5694 5.83301 13.3333 5.83301H6.66667C6.43056 5.83301 6.23264 5.91287 6.07292 6.07259C5.91319 6.23231 5.83333 6.43023 5.83333 6.66634C5.83333 6.90245 5.91319 7.10037 6.07292 7.26009C6.23264 7.41981 6.43056 7.49967 6.66667 7.49967ZM10 3.54134C10.1806 3.54134 10.3299 3.48231 10.4479 3.36426C10.566 3.2462 10.625 3.0969 10.625 2.91634C10.625 2.73579 10.566 2.58648 10.4479 2.46842C10.3299 2.35037 10.1806 2.29134 10 2.29134C9.81944 2.29134 9.67014 2.35037 9.55208 2.46842C9.43403 2.58648 9.375 2.73579 9.375 2.91634C9.375 3.0969 9.43403 3.2462 9.55208 3.36426C9.67014 3.48231 9.81944 3.54134 10 3.54134Z" fill="#636769"/>
</g>
</svg>
