<svg width="16" height="16" viewBox="0 0 16 16" fill="none" xmlns="http://www.w3.org/2000/svg">
  <path d="M3 6C3 4.89543 3.89543 4 5 4H6C6.55228 4 7 4.44772 7 5V10C7 10.5523 6.55228 11 6 11H5C3.89543 11 3 10.1046 3 9V6Z" stroke="currentColor" stroke-width="1.5" stroke-linecap="round" stroke-linejoin="round"/>
  <path d="M9 6C9 4.89543 9.89543 4 11 4H12C12.5523 4 13 4.44772 13 5V10C13 10.5523 12.5523 11 12 11H11C9.89543 11 9 10.1046 9 9V6Z" stroke="currentColor" stroke-width="1.5" stroke-linecap="round" stroke-linejoin="round"/>
  <path d="M5 11V12" stroke="currentColor" stroke-width="1.5" stroke-linecap="round"/>
  <path d="M11 11V12" stroke="currentColor" stroke-width="1.5" stroke-linecap="round"/>
</svg>
