<svg width="20" height="20" viewBox="0 0 20 20" fill="none" xmlns="http://www.w3.org/2000/svg">
<mask id="mask0_4076_59992" style="mask-type:alpha" maskUnits="userSpaceOnUse" x="0" y="0" width="20" height="20">
<rect width="20" height="20" fill="#D9D9D9"/>
</mask>
<g mask="url(#mask0_4076_59992)">
<path d="M10 16.2919C9.84726 16.2919 9.69796 16.2711 9.55212 16.2294C9.40629 16.1877 9.27087 16.1322 9.14587 16.0627C8.57643 15.7155 7.97921 15.4516 7.35421 15.2711C6.72921 15.0905 6.08337 15.0002 5.41671 15.0002C4.83337 15.0002 4.26046 15.0766 3.69796 15.2294C3.13546 15.3822 2.59726 15.5974 2.08337 15.8752C1.79171 16.028 1.51046 16.0211 1.23962 15.8544C0.968791 15.6877 0.833374 15.4447 0.833374 15.1252V5.08355C0.833374 4.93077 0.871568 4.78494 0.947957 4.64605C1.02435 4.50716 1.13893 4.40299 1.29171 4.33355C1.9306 4.00022 2.59726 3.75022 3.29171 3.58355C3.98615 3.41688 4.69449 3.33355 5.41671 3.33355C6.22226 3.33355 7.01046 3.43772 7.78129 3.64605C8.55212 3.85438 9.29171 4.16688 10 4.58355V14.6669C10.7084 14.2224 11.4514 13.8891 12.2292 13.6669C13.007 13.4447 13.7917 13.3336 14.5834 13.3336C15.0834 13.3336 15.573 13.3752 16.0521 13.4586C16.5313 13.5419 17.0139 13.6669 17.5 13.8336V3.83355C17.7084 3.90299 17.9132 3.97591 18.1146 4.0523C18.316 4.12869 18.5139 4.22244 18.7084 4.33355C18.8612 4.40299 18.9757 4.50716 19.0521 4.64605C19.1285 4.78494 19.1667 4.93077 19.1667 5.08355V15.1252C19.1667 15.4447 19.0313 15.6877 18.7605 15.8544C18.4896 16.0211 18.2084 16.028 17.9167 15.8752C17.4028 15.5974 16.8646 15.3822 16.3021 15.2294C15.7396 15.0766 15.1667 15.0002 14.5834 15.0002C13.9167 15.0002 13.2709 15.0905 12.6459 15.2711C12.0209 15.4516 11.4237 15.7155 10.8542 16.0627C10.7292 16.1322 10.5938 16.1877 10.448 16.2294C10.3021 16.2711 10.1528 16.2919 10 16.2919ZM12.3542 11.8752C12.2153 12.0002 12.066 12.0245 11.9063 11.9481C11.7466 11.8717 11.6667 11.7433 11.6667 11.5627V4.75022C11.6667 4.69466 11.6771 4.64258 11.698 4.59397C11.7188 4.54536 11.75 4.50022 11.7917 4.45855L15.125 1.12522C15.2639 0.986328 15.4167 0.951606 15.5834 1.02105C15.75 1.09049 15.8334 1.22244 15.8334 1.41688V8.56272C15.8334 8.63216 15.8195 8.69119 15.7917 8.7398C15.7639 8.78841 15.7292 8.83355 15.6875 8.87522L12.3542 11.8752ZM8.33337 13.8544V5.60438C7.87504 5.40994 7.39935 5.26063 6.90629 5.15647C6.41324 5.0523 5.91671 5.00022 5.41671 5.00022C4.90282 5.00022 4.40282 5.04883 3.91671 5.14605C3.4306 5.24327 2.95837 5.38911 2.50004 5.58355V13.8544C2.98615 13.6738 3.46879 13.5419 3.94796 13.4586C4.42712 13.3752 4.91671 13.3336 5.41671 13.3336C5.91671 13.3336 6.40629 13.3752 6.88546 13.4586C7.36462 13.5419 7.84726 13.6738 8.33337 13.8544Z" fill="#636769"/>
</g>
</svg>
