<svg width="20" height="20" viewBox="0 0 20 20" fill="none" xmlns="http://www.w3.org/2000/svg">
<mask id="mask0_4074_59549" style="mask-type:alpha" maskUnits="userSpaceOnUse" x="0" y="0" width="20" height="20">
<rect width="20" height="20" fill="#D9D9D9"/>
</mask>
<g mask="url(#mask0_4074_59549)">
<path d="M11.6667 10.833C10.9723 10.833 10.382 10.59 9.89587 10.1038C9.40976 9.61773 9.16671 9.02745 9.16671 8.33301C9.16671 7.63856 9.40976 7.04829 9.89587 6.56217C10.382 6.07606 10.9723 5.83301 11.6667 5.83301C12.3612 5.83301 12.9514 6.07606 13.4375 6.56217C13.9237 7.04829 14.1667 7.63856 14.1667 8.33301C14.1667 9.02745 13.9237 9.61773 13.4375 10.1038C12.9514 10.59 12.3612 10.833 11.6667 10.833ZM5.83337 13.333C5.37504 13.333 4.98268 13.1698 4.65629 12.8434C4.3299 12.517 4.16671 12.1247 4.16671 11.6663V4.99967C4.16671 4.54134 4.3299 4.14898 4.65629 3.82259C4.98268 3.4962 5.37504 3.33301 5.83337 3.33301H17.5C17.9584 3.33301 18.3507 3.4962 18.6771 3.82259C19.0035 4.14898 19.1667 4.54134 19.1667 4.99967V11.6663C19.1667 12.1247 19.0035 12.517 18.6771 12.8434C18.3507 13.1698 17.9584 13.333 17.5 13.333H5.83337ZM7.50004 11.6663H15.8334C15.8334 11.208 15.9966 10.8156 16.323 10.4893C16.6493 10.1629 17.0417 9.99967 17.5 9.99967V6.66634C17.0417 6.66634 16.6493 6.50315 16.323 6.17676C15.9966 5.85037 15.8334 5.45801 15.8334 4.99967H7.50004C7.50004 5.45801 7.33685 5.85037 7.01046 6.17676C6.68407 6.50315 6.29171 6.66634 5.83337 6.66634V9.99967C6.29171 9.99967 6.68407 10.1629 7.01046 10.4893C7.33685 10.8156 7.50004 11.208 7.50004 11.6663ZM15.8334 16.6663H2.50004C2.04171 16.6663 1.64935 16.5031 1.32296 16.1768C0.996568 15.8504 0.833374 15.458 0.833374 14.9997V6.66634C0.833374 6.43023 0.913235 6.23231 1.07296 6.07259C1.23268 5.91287 1.4306 5.83301 1.66671 5.83301C1.90282 5.83301 2.10074 5.91287 2.26046 6.07259C2.42018 6.23231 2.50004 6.43023 2.50004 6.66634V14.9997H15.8334C16.0695 14.9997 16.2674 15.0795 16.4271 15.2393C16.5868 15.399 16.6667 15.5969 16.6667 15.833C16.6667 16.0691 16.5868 16.267 16.4271 16.4268C16.2674 16.5865 16.0695 16.6663 15.8334 16.6663Z" fill="#636769"/>
</g>
</svg>
