<svg width="20" height="20" viewBox="0 0 20 20" fill="none" xmlns="http://www.w3.org/2000/svg">
<mask id="mask0_4074_59948" style="mask-type:alpha" maskUnits="userSpaceOnUse" x="0" y="0" width="20" height="20">
<rect width="20" height="20" fill="#D9D9D9"/>
</mask>
<g mask="url(#mask0_4074_59948)">
<path d="M5.83334 14.1667V16.6667C5.83334 16.9028 5.75348 17.1007 5.59376 17.2604C5.43404 17.4201 5.23612 17.5 5.00001 17.5C4.7639 17.5 4.56598 17.4201 4.40626 17.2604C4.24653 17.1007 4.16667 16.9028 4.16667 16.6667V14.1667H3.33334C3.09723 14.1667 2.89931 14.0868 2.73959 13.9271C2.57987 13.7674 2.50001 13.5694 2.50001 13.3333C2.50001 13.0972 2.57987 12.8993 2.73959 12.7396C2.89931 12.5799 3.09723 12.5 3.33334 12.5H4.16667V9.04167L2.50001 10.3125C2.30556 10.4514 2.09723 10.5104 1.87501 10.4896C1.65278 10.4687 1.47223 10.3611 1.33334 10.1667C1.19445 9.97222 1.1389 9.76389 1.16667 9.54167C1.19445 9.31944 1.30556 9.13889 1.50001 9L8.97917 3.27083C9.13195 3.15972 9.29515 3.07639 9.46876 3.02083C9.64237 2.96528 9.81945 2.9375 10 2.9375C10.1806 2.9375 10.3576 2.96528 10.5313 3.02083C10.7049 3.07639 10.8681 3.15972 11.0208 3.27083L18.5 9C18.6806 9.13889 18.7882 9.31944 18.8229 9.54167C18.8576 9.76389 18.8056 9.97222 18.6667 10.1667C18.5278 10.3611 18.3472 10.4687 18.125 10.4896C17.9028 10.5104 17.6945 10.4514 17.5 10.3125L15.8333 9.04167V12.5H16.6667C16.9028 12.5 17.1007 12.5799 17.2604 12.7396C17.4201 12.8993 17.5 13.0972 17.5 13.3333C17.5 13.5694 17.4201 13.7674 17.2604 13.9271C17.1007 14.0868 16.9028 14.1667 16.6667 14.1667H15.8333V16.6667C15.8333 16.9028 15.7535 17.1007 15.5938 17.2604C15.434 17.4201 15.2361 17.5 15 17.5C14.7639 17.5 14.566 17.4201 14.4063 17.2604C14.2465 17.1007 14.1667 16.9028 14.1667 16.6667V14.1667H10.8333V16.6667C10.8333 16.9028 10.7535 17.1007 10.5938 17.2604C10.434 17.4201 10.2361 17.5 10 17.5C9.7639 17.5 9.56598 17.4201 9.40626 17.2604C9.24654 17.1007 9.16667 16.9028 9.16667 16.6667V14.1667H5.83334ZM5.83334 12.5H9.16667V5.22917L5.83334 7.77083V12.5ZM10.8333 12.5H14.1667V7.77083L10.8333 5.22917V12.5Z" fill="#636769"/>
</g>
</svg>
