<svg width="20" height="20" viewBox="0 0 20 20" fill="none" xmlns="http://www.w3.org/2000/svg">
<mask id="mask0_4076_59973" style="mask-type:alpha" maskUnits="userSpaceOnUse" x="0" y="0" width="20" height="20">
<rect width="20" height="20" fill="#D9D9D9"/>
</mask>
<g mask="url(#mask0_4076_59973)">
<path d="M3.31254 16.4788C2.6181 16.4788 2.03129 16.2358 1.55212 15.7497C1.07296 15.2636 0.833374 14.6733 0.833374 13.9788V8.97884C0.833374 8.52051 0.996568 8.12815 1.32296 7.80176C1.64935 7.47537 2.04171 7.31217 2.50004 7.31217H6.66671V3.97884C6.66671 3.74273 6.74657 3.54481 6.90629 3.38509C7.06601 3.22537 7.26393 3.14551 7.50004 3.14551H10.8334C11.5278 3.14551 12.1146 3.38856 12.5938 3.87467C13.073 4.36079 13.3125 4.95106 13.3125 5.64551V8.97884H14.1459V7.99967C14.1459 7.77745 14.191 7.56217 14.2813 7.35384C14.3716 7.14551 14.4931 6.96495 14.6459 6.81217L15.4584 6.02051C15.6528 5.82606 15.8855 5.74967 16.1563 5.79134C16.4271 5.83301 16.632 5.97884 16.7709 6.22884L19.3334 11.083C19.4862 11.3608 19.4827 11.6351 19.323 11.9059C19.1632 12.1768 18.9237 12.3122 18.6042 12.3122H15.8125C15.3542 12.3122 14.9618 12.149 14.6355 11.8226C14.3091 11.4962 14.1459 11.1038 14.1459 10.6455H13.3125V12.1038C13.5903 12.34 13.8021 12.6212 13.948 12.9476C14.0938 13.274 14.1667 13.6177 14.1667 13.9788C14.1667 14.6733 13.9237 15.2636 13.4375 15.7497C12.9514 16.2358 12.3612 16.4788 11.6667 16.4788C11.1389 16.4788 10.6598 16.3261 10.2292 16.0205C9.79865 15.715 9.48615 15.3122 9.29171 14.8122H5.68754C5.4931 15.3122 5.1806 15.715 4.75004 16.0205C4.31949 16.3261 3.84032 16.4788 3.31254 16.4788ZM3.31254 14.8122C3.54865 14.8122 3.75004 14.7323 3.91671 14.5726C4.08337 14.4129 4.16671 14.215 4.16671 13.9788C4.16671 13.7427 4.08685 13.5448 3.92712 13.3851C3.7674 13.2254 3.56949 13.1455 3.33337 13.1455C3.09726 13.1455 2.89935 13.2254 2.73962 13.3851C2.5799 13.5448 2.50004 13.7427 2.50004 13.9788C2.50004 14.215 2.57643 14.4129 2.72921 14.5726C2.88199 14.7323 3.07643 14.8122 3.31254 14.8122ZM11.6667 14.8122C11.9028 14.8122 12.1007 14.7323 12.2605 14.5726C12.4202 14.4129 12.5 14.215 12.5 13.9788C12.5 13.7427 12.4202 13.5448 12.2605 13.3851C12.1007 13.2254 11.9028 13.1455 11.6667 13.1455C11.4306 13.1455 11.2327 13.2254 11.073 13.3851C10.9132 13.5448 10.8334 13.7427 10.8334 13.9788C10.8334 14.215 10.9132 14.4129 11.073 14.5726C11.2327 14.7323 11.4306 14.8122 11.6667 14.8122ZM6.66671 13.1455V8.97884H2.50004V11.6247C2.63893 11.5691 2.77435 11.5309 2.90629 11.5101C3.03824 11.4893 3.1806 11.4788 3.33337 11.4788C3.86115 11.4788 4.34032 11.6316 4.77087 11.9372C5.20143 12.2427 5.50699 12.6455 5.68754 13.1455H6.66671ZM8.33337 13.1455H9.29171C9.47226 12.6455 9.78129 12.2427 10.2188 11.9372C10.6563 11.6316 11.1389 11.4788 11.6667 11.4788V10.6455H8.33337V13.1455ZM17.2292 10.6455L15.8334 7.99967V10.6455H17.2292ZM8.33337 8.97884H11.6667V5.64551C11.6667 5.4094 11.5868 5.21148 11.4271 5.05176C11.2674 4.89204 11.0695 4.81217 10.8334 4.81217H8.33337V8.97884ZM6.66671 13.1455V11.4788V11.6247V8.97884V13.1455Z" fill="#636769"/>
</g>
</svg>
