<svg width="20" height="20" viewBox="0 0 20 20" fill="none" xmlns="http://www.w3.org/2000/svg">
<mask id="mask0_2008_84732" style="mask-type:alpha" maskUnits="userSpaceOnUse" x="0" y="0" width="20" height="20">
<rect width="20" height="20" fill="#D9D9D9"/>
</mask>
<g mask="url(#mask0_2008_84732)">
<path d="M11.6666 10.8333C10.9722 10.8333 10.3819 10.5903 9.89581 10.1041C9.4097 9.61804 9.16665 9.02776 9.16665 8.33331C9.16665 7.63887 9.4097 7.04859 9.89581 6.56248C10.3819 6.07637 10.9722 5.83331 11.6666 5.83331C12.3611 5.83331 12.9514 6.07637 13.4375 6.56248C13.9236 7.04859 14.1666 7.63887 14.1666 8.33331C14.1666 9.02776 13.9236 9.61804 13.4375 10.1041C12.9514 10.5903 12.3611 10.8333 11.6666 10.8333ZM5.83331 13.3333C5.37498 13.3333 4.98262 13.1701 4.65623 12.8437C4.32984 12.5173 4.16665 12.125 4.16665 11.6666V4.99998C4.16665 4.54165 4.32984 4.14929 4.65623 3.8229C4.98262 3.49651 5.37498 3.33331 5.83331 3.33331H17.5C17.9583 3.33331 18.3507 3.49651 18.6771 3.8229C19.0035 4.14929 19.1666 4.54165 19.1666 4.99998V11.6666C19.1666 12.125 19.0035 12.5173 18.6771 12.8437C18.3507 13.1701 17.9583 13.3333 17.5 13.3333H5.83331ZM7.49998 11.6666H15.8333C15.8333 11.2083 15.9965 10.816 16.3229 10.4896C16.6493 10.1632 17.0416 9.99998 17.5 9.99998V6.66665C17.0416 6.66665 16.6493 6.50345 16.3229 6.17706C15.9965 5.85067 15.8333 5.45831 15.8333 4.99998H7.49998C7.49998 5.45831 7.33679 5.85067 7.0104 6.17706C6.68401 6.50345 6.29165 6.66665 5.83331 6.66665V9.99998C6.29165 9.99998 6.68401 10.1632 7.0104 10.4896C7.33679 10.816 7.49998 11.2083 7.49998 11.6666ZM15.8333 16.6666H2.49998C2.04165 16.6666 1.64929 16.5035 1.3229 16.1771C0.996507 15.8507 0.833313 15.4583 0.833313 15V6.66665C0.833313 6.43054 0.913174 6.23262 1.0729 6.0729C1.23262 5.91317 1.43054 5.83331 1.66665 5.83331C1.90276 5.83331 2.10067 5.91317 2.2604 6.0729C2.42012 6.23262 2.49998 6.43054 2.49998 6.66665V15H15.8333C16.0694 15 16.2673 15.0798 16.4271 15.2396C16.5868 15.3993 16.6666 15.5972 16.6666 15.8333C16.6666 16.0694 16.5868 16.2673 16.4271 16.4271C16.2673 16.5868 16.0694 16.6666 15.8333 16.6666Z" fill="#636769"/>
</g>
</svg>
