<svg width="16" height="16" viewBox="0 0 16 16" fill="none" xmlns="http://www.w3.org/2000/svg">
<mask id="mask0_2796_144548" style="mask-type:alpha" maskUnits="userSpaceOnUse" x="0" y="0" width="16" height="16">
<rect width="16" height="16" fill="#D9D9D9"/>
</mask>
<g mask="url(#mask0_2796_144548)">
<path d="M3.99984 13.3335C3.63317 13.3335 3.31928 13.203 3.05817 12.9419C2.79706 12.6808 2.6665 12.3669 2.6665 12.0002V10.6669C2.6665 10.478 2.73039 10.3196 2.85817 10.1919C2.98595 10.0641 3.14428 10.0002 3.33317 10.0002C3.52206 10.0002 3.68039 10.0641 3.80817 10.1919C3.93595 10.3196 3.99984 10.478 3.99984 10.6669V12.0002H11.9998V10.6669C11.9998 10.478 12.0637 10.3196 12.1915 10.1919C12.3193 10.0641 12.4776 10.0002 12.6665 10.0002C12.8554 10.0002 13.0137 10.0641 13.1415 10.1919C13.2693 10.3196 13.3332 10.478 13.3332 10.6669V12.0002C13.3332 12.3669 13.2026 12.6808 12.9415 12.9419C12.6804 13.203 12.3665 13.3335 11.9998 13.3335H3.99984ZM7.33317 5.23353L6.08317 6.48353C5.94984 6.61686 5.7915 6.68075 5.60817 6.6752C5.42484 6.66964 5.2665 6.6002 5.13317 6.46686C5.01095 6.33353 4.94706 6.17797 4.9415 6.0002C4.93595 5.82242 4.99984 5.66686 5.13317 5.53353L7.53317 3.13353C7.59984 3.06686 7.67206 3.01964 7.74984 2.99186C7.82762 2.96408 7.91095 2.9502 7.99984 2.9502C8.08873 2.9502 8.17206 2.96408 8.24984 2.99186C8.32762 3.01964 8.39984 3.06686 8.4665 3.13353L10.8665 5.53353C10.9998 5.66686 11.0637 5.82242 11.0582 6.0002C11.0526 6.17797 10.9887 6.33353 10.8665 6.46686C10.7332 6.6002 10.5748 6.66964 10.3915 6.6752C10.2082 6.68075 10.0498 6.61686 9.9165 6.48353L8.6665 5.23353V10.0002C8.6665 10.1891 8.60262 10.3474 8.47484 10.4752C8.34706 10.603 8.18873 10.6669 7.99984 10.6669C7.81095 10.6669 7.65262 10.603 7.52484 10.4752C7.39706 10.3474 7.33317 10.1891 7.33317 10.0002V5.23353Z" fill="#75787B"/>
</g>
</svg>
