<svg width="24" height="24" viewBox="0 0 24 24" fill="none" xmlns="http://www.w3.org/2000/svg">
<mask id="mask0_2008_86494" style="mask-type:alpha" maskUnits="userSpaceOnUse" x="0" y="0" width="24" height="24">
<rect width="24" height="24" fill="#D9D9D9"/>
</mask>
<g mask="url(#mask0_2008_86494)">
<path d="M3 18C2.58333 18 2.28333 17.8167 2.1 17.45C1.91666 17.0833 1.95 16.7333 2.2 16.4L6.2 11.075C6.3 10.9417 6.42083 10.8417 6.5625 10.775C6.70416 10.7083 6.85 10.675 7 10.675C7.15 10.675 7.29583 10.7083 7.4375 10.775C7.57916 10.8417 7.7 10.9417 7.8 11.075L11.5 16H19L14 9.34999L11.5 12.65L10.25 11L13.2 7.07499C13.3 6.94165 13.4208 6.84165 13.5625 6.77499C13.7042 6.70832 13.85 6.67499 14 6.67499C14.15 6.67499 14.2958 6.70832 14.4375 6.77499C14.5792 6.84165 14.7 6.94165 14.8 7.07499L21.8 16.4C22.05 16.7333 22.0833 17.0833 21.9 17.45C21.7167 17.8167 21.4167 18 21 18H3ZM11.5 16H19H11.2H12.9125H11.5ZM5 16H9L7 13.325L5 16Z" fill="#3E4041"/>
</g>
</svg>
