<svg width="95" height="55" viewBox="0 0 95 55" fill="none" xmlns="http://www.w3.org/2000/svg">
<g filter="url(#filter0_d_2697_55507)">
<path d="M7.57055 11.0307L22.9292 6.91539C23.0577 6.88094 23.1945 6.89956 23.3097 6.96607L36.198 14.4063C36.3133 14.4729 36.398 14.5829 36.4324 14.7115L42.5665 37.6041C42.9844 39.1644 42.0577 40.7685 40.4974 41.1865L17.3152 47.3982C15.755 47.816 14.1513 46.8901 13.7331 45.33L5.5024 14.6129C5.08458 13.0527 6.01052 11.4489 7.57055 11.0307Z" fill="white" stroke="#D5D7DA" stroke-width="1.35"/>
<path d="M22.8809 6.73438L24.8511 14.0875C25.3657 16.008 27.3397 17.1477 29.2602 16.6331L36.6133 14.6628" stroke="#D5D7DA" stroke-width="1.35"/>
<rect x="4.78809" y="29.7656" width="26.4" height="14.6" rx="1.8" transform="rotate(-15 4.78809 29.7656)" fill="#444CE7"/>
<path d="M9.19708 32.9882L10.8456 32.5464L13.725 36.3278L13.799 36.3079L14.402 31.5935L16.0505 31.1518L17.7446 37.4742L16.448 37.8216L15.3453 33.7065L15.2929 33.7206L14.7511 38.2432L13.8681 38.4798L11.1335 34.8185L11.081 34.8326L12.1878 38.9632L10.8912 39.3106L9.19708 32.9882ZM21.0872 36.5786L18.8459 37.1791L17.1518 30.8567L19.4116 30.2512C20.0475 30.0808 20.6289 30.0607 21.1557 30.1908C21.6819 30.319 22.1317 30.5856 22.5049 30.9907C22.8802 31.3953 23.1558 31.9258 23.3318 32.5824C23.5082 33.2409 23.5354 33.8403 23.4132 34.3804C23.293 34.9199 23.0353 35.3783 22.6401 35.7555C22.2469 36.1322 21.7293 36.4065 21.0872 36.5786ZM19.8757 35.6756L20.7247 35.4482C21.1198 35.3423 21.4335 35.1832 21.6656 34.971C21.8992 34.7562 22.0442 34.4825 22.1006 34.1497C22.1586 33.8143 22.1244 33.411 21.9981 32.9397C21.8729 32.4725 21.7017 32.1092 21.4844 31.8498C21.2691 31.5898 21.008 31.426 20.7009 31.3583C20.3938 31.2906 20.0426 31.3097 19.6475 31.4155L18.7954 31.6439L19.8757 35.6756ZM25.1706 35.4844L23.4766 29.162L25.9709 28.4936C26.4484 28.3657 26.8788 28.3419 27.2621 28.4223C27.6469 28.5001 27.9694 28.6706 28.2297 28.934C28.4915 29.1947 28.6783 29.534 28.7903 29.9517C28.9028 30.3716 28.909 30.7571 28.809 31.1081C28.7084 31.4571 28.5077 31.7579 28.207 32.0106C27.9084 32.2626 27.5162 32.4538 27.0305 32.5839L25.3604 33.0314L25.0725 31.9571L26.5266 31.5675C26.7818 31.4991 26.9844 31.4073 27.1344 31.2921C27.2844 31.1769 27.3818 31.0383 27.4267 30.8763C27.4735 30.7138 27.4691 30.5285 27.4134 30.3207C27.3572 30.1108 27.2676 29.9451 27.1446 29.8236C27.0237 29.7016 26.8679 29.6264 26.6772 29.5981C26.488 29.5672 26.2648 29.5862 26.0075 29.6551L25.1061 29.8967L26.5074 35.1262L25.1706 35.4844ZM27.8141 31.6923L30.1563 34.1485L28.6807 34.5439L26.3724 32.0786L27.8141 31.6923Z" fill="white"/>
</g>
<g filter="url(#filter1_d_2697_55507)">
<path d="M65.9517 5.44869L81.3103 9.56402C81.4389 9.59846 81.548 9.68297 81.6146 9.7982L89.056 22.6858C89.1226 22.8011 89.1409 22.9387 89.1064 23.0673L82.9724 45.9599C82.5541 47.5201 80.9496 48.4459 79.3893 48.0278L56.2071 41.8162C54.647 41.3979 53.7211 39.7942 54.1389 38.234L62.3696 7.51684C62.7878 5.95681 64.3916 5.03087 65.9517 5.44869Z" fill="white" stroke="#D5D7DA" stroke-width="1.35"/>
<path d="M81.3584 9.38281L79.3881 16.7359C78.8735 18.6564 80.0132 20.6304 81.9337 21.145L89.2868 23.1153" stroke="#D5D7DA" stroke-width="1.35"/>
<rect x="53.1475" y="20.0078" width="33.4" height="14.6" rx="1.8" transform="rotate(15 53.1475 20.0078)" fill="#3E4041"/>
<path d="M53.8446 31.3755L55.5387 25.0531L58.0331 25.7214C58.5105 25.8494 58.8951 26.044 59.1869 26.3052C59.4813 26.565 59.6753 26.874 59.769 27.2322C59.8654 27.5888 59.8576 27.9761 59.7456 28.3939C59.6331 28.8137 59.4458 29.1507 59.1836 29.4047C58.922 29.6566 58.5978 29.8168 58.2111 29.8852C57.8264 29.9542 57.3913 29.9237 56.9055 29.7935L55.2354 29.346L55.5233 28.2717L56.9773 28.6613C57.2325 28.7297 57.4539 28.7515 57.6414 28.7267C57.8289 28.702 57.9826 28.6306 58.1024 28.5128C58.2243 28.3954 58.3131 28.2328 58.3688 28.0249C58.425 27.815 58.4302 27.6267 58.3845 27.46C58.3407 27.2939 58.2434 27.1509 58.0924 27.0311C57.9441 26.9097 57.7413 26.8145 57.484 26.7456L56.5826 26.5041L55.1813 31.7337L53.8446 31.3755ZM58.0299 29.4132L58.8303 32.7114L57.3546 32.316L56.5882 29.0269L58.0299 29.4132ZM66.5319 27.9987L64.8378 34.3211L63.6832 34.0117L61.9988 29.2954L61.9525 29.283L60.8863 33.2623L59.5496 32.9041L61.2437 26.5817L62.4168 26.896L64.0804 31.6035L64.1359 31.6184L65.2013 27.6422L66.5319 27.9987ZM68.1835 35.2176L65.9422 34.617L67.6363 28.2946L69.8961 28.9001C70.532 29.0705 71.0456 29.3438 71.4367 29.7199C71.8284 30.094 72.0845 30.5497 72.2052 31.0872C72.328 31.6252 72.3014 32.2225 72.1255 32.879C71.949 33.5376 71.6728 34.0702 71.297 34.4769C70.9232 34.8841 70.4708 35.1522 69.9399 35.2812C69.4111 35.4109 68.8256 35.3896 68.1835 35.2176ZM67.5858 33.8299L68.4348 34.0574C68.8299 34.1633 69.1811 34.1823 69.4882 34.1146C69.7979 34.0454 70.0604 33.8808 70.2756 33.6209C70.4935 33.3594 70.6655 32.993 70.7918 32.5217C70.917 32.0545 70.9504 31.6543 70.8919 31.321C70.8355 30.9882 70.6912 30.7157 70.4591 30.5035C70.227 30.2913 69.9133 30.1323 69.5182 30.0264L68.6661 29.7981L67.5858 33.8299ZM73.9611 29.9893L75.6096 30.431L76.2125 35.1455L76.2866 35.1653L79.1659 31.384L80.8145 31.8257L79.1204 38.1481L77.8238 37.8007L78.9264 33.6856L78.8739 33.6715L76.1434 37.3174L75.2605 37.0808L74.7228 32.5427L74.6703 32.5286L73.5636 36.6592L72.267 36.3118L73.9611 29.9893Z" fill="white"/>
</g>
<g filter="url(#filter2_dd_2697_55507)">
<path d="M32.415 2.88672H52.2148C52.3902 2.88672 52.5586 2.95709 52.6826 3.08105L65.6338 16.0322C65.7577 16.1562 65.8271 16.3247 65.8271 16.5V45.8994C65.8271 47.784 64.2996 49.3124 62.415 49.3125H32.415C30.5304 49.3125 29.002 47.7841 29.002 45.8994V6.2998C29.002 4.41513 30.5304 2.88672 32.415 2.88672Z" fill="white" stroke="#D5D7DA" stroke-width="1.575"/>
<path d="M52.2148 2.69922V12.2992C52.2148 14.6188 54.0952 16.4992 56.4148 16.4992H66.0148" stroke="#D5D7DA" stroke-width="1.575"/>
<rect x="22.9648" y="24.6992" width="27.3" height="17.2" rx="2.1" fill="#D92D20"/>
<path d="M26.9891 36.7988V29.1625H30.0019C30.5811 29.1625 31.0746 29.2731 31.4822 29.4943C31.8899 29.7131 32.2006 30.0176 32.4144 30.4078C32.6307 30.7956 32.7388 31.2431 32.7388 31.7502C32.7388 32.2573 32.6294 32.7047 32.4107 33.0925C32.1919 33.4803 31.875 33.7823 31.4598 33.9986C31.0472 34.2148 30.5476 34.323 29.9609 34.323H28.0406V33.0291H29.6999C30.0106 33.0291 30.2667 32.9757 30.468 32.8688C30.6719 32.7594 30.8235 32.609 30.9229 32.4176C31.0248 32.2237 31.0758 32.0012 31.0758 31.7502C31.0758 31.4966 31.0248 31.2754 30.9229 31.0865C30.8235 30.8951 30.6719 30.7472 30.468 30.6428C30.2642 30.5359 30.0057 30.4824 29.6924 30.4824H28.6037V36.7988H26.9891ZM36.4945 36.7988H33.7875V29.1625H36.5169C37.285 29.1625 37.9462 29.3153 38.5006 29.6211C39.0549 29.9244 39.4812 30.3606 39.7795 30.9299C40.0803 31.4991 40.2307 32.1802 40.2307 32.9732C40.2307 33.7686 40.0803 34.4522 39.7795 35.024C39.4812 35.5957 39.0524 36.0344 38.4931 36.3402C37.9363 36.646 37.2701 36.7988 36.4945 36.7988ZM35.402 35.4155H36.4274C36.9047 35.4155 37.3061 35.331 37.6318 35.1619C37.9599 34.9904 38.206 34.7257 38.3701 34.3677C38.5366 34.0073 38.6199 33.5424 38.6199 32.9732C38.6199 32.4089 38.5366 31.9478 38.3701 31.5898C38.206 31.2319 37.9611 30.9684 37.6355 30.7994C37.3099 30.6303 36.9084 30.5458 36.4311 30.5458H35.402V35.4155ZM41.4266 36.7988V29.1625H46.4828V30.4936H43.0412V32.3132H46.1472V33.6444H43.0412V36.7988H41.4266Z" fill="white"/>
</g>
<defs>
<filter id="filter0_d_2697_55507" x="-1.57539" y="2.11562" width="47.5346" height="49.5668" filterUnits="userSpaceOnUse" color-interpolation-filters="sRGB">
<feFlood flood-opacity="0" result="BackgroundImageFix"/>
<feColorMatrix in="SourceAlpha" type="matrix" values="0 0 0 0 0 0 0 0 0 0 0 0 0 0 0 0 0 0 127 0" result="hardAlpha"/>
<feOffset dy="0.9"/>
<feGaussianBlur stdDeviation="0.9"/>
<feColorMatrix type="matrix" values="0 0 0 0 0 0 0 0 0 0 0 0 0 0 0 0 0 0 0.05 0"/>
<feBlend mode="normal" in2="BackgroundImageFix" result="effect1_dropShadow_2697_55507"/>
<feBlend mode="normal" in="SourceGraphic" in2="effect1_dropShadow_2697_55507" result="shape"/>
</filter>
<filter id="filter1_d_2697_55507" x="44.1629" y="1.19961" width="51.3646" height="51.3656" filterUnits="userSpaceOnUse" color-interpolation-filters="sRGB">
<feFlood flood-opacity="0" result="BackgroundImageFix"/>
<feColorMatrix in="SourceAlpha" type="matrix" values="0 0 0 0 0 0 0 0 0 0 0 0 0 0 0 0 0 0 127 0" result="hardAlpha"/>
<feOffset dy="0.9"/>
<feGaussianBlur stdDeviation="0.9"/>
<feColorMatrix type="matrix" values="0 0 0 0 0 0 0 0 0 0 0 0 0 0 0 0 0 0 0.05 0"/>
<feBlend mode="normal" in2="BackgroundImageFix" result="effect1_dropShadow_2697_55507"/>
<feBlend mode="normal" in="SourceGraphic" in2="effect1_dropShadow_2697_55507" result="shape"/>
</filter>
<filter id="filter2_dd_2697_55507" x="16.6645" y="-0.000390649" width="54.3" height="54.3" filterUnits="userSpaceOnUse" color-interpolation-filters="sRGB">
<feFlood flood-opacity="0" result="BackgroundImageFix"/>
<feColorMatrix in="SourceAlpha" type="matrix" values="0 0 0 0 0 0 0 0 0 0 0 0 0 0 0 0 0 0 127 0" result="hardAlpha"/>
<feOffset dy="1.05"/>
<feGaussianBlur stdDeviation="1.05"/>
<feColorMatrix type="matrix" values="0 0 0 0 0 0 0 0 0 0 0 0 0 0 0 0 0 0 0.06 0"/>
<feBlend mode="normal" in2="BackgroundImageFix" result="effect1_dropShadow_2697_55507"/>
<feColorMatrix in="SourceAlpha" type="matrix" values="0 0 0 0 0 0 0 0 0 0 0 0 0 0 0 0 0 0 127 0" result="hardAlpha"/>
<feOffset dy="1.05"/>
<feGaussianBlur stdDeviation="1.575"/>
<feColorMatrix type="matrix" values="0 0 0 0 0 0 0 0 0 0 0 0 0 0 0 0 0 0 0.1 0"/>
<feBlend mode="normal" in2="effect1_dropShadow_2697_55507" result="effect2_dropShadow_2697_55507"/>
<feBlend mode="normal" in="SourceGraphic" in2="effect2_dropShadow_2697_55507" result="shape"/>
</filter>
</defs>
</svg>
